<mxfile host="app.diagrams.net" agent="Mozilla/5.0 (Windows NT 10.0; Win64; x64) AppleWebKit/537.36 (KHTML, like Gecko) Chrome/137.0.0.0 Safari/537.36" version="27.2.0">
  <diagram name="Page-1" id="ff44883e-f642-bcb2-894b-16b3d25a3f0b">
    <mxGraphModel grid="1" page="1" gridSize="10" guides="1" tooltips="1" connect="1" arrows="1" fold="1" pageScale="1.5" pageWidth="1169" pageHeight="826" background="none" math="0" shadow="0">
      <root>
        <mxCell id="0" style=";html=1;" />
        <mxCell id="1" style=";html=1;" parent="0" />
        <mxCell id="f0bcc99304e6f5a-16" style="edgeStyle=none;curved=1;html=1;startSize=10;endFill=1;endSize=10;strokeWidth=4;fontSize=12;entryX=0;entryY=0.5;entryDx=0;entryDy=0;fillColor=#f8cecc;strokeColor=#b85450;" edge="1" parent="1" source="f0bcc99304e6f5a-1" target="f0bcc99304e6f5a-3">
          <mxGeometry relative="1" as="geometry">
            <mxPoint x="390" y="610" as="targetPoint" />
          </mxGeometry>
        </mxCell>
        <mxCell id="f0bcc99304e6f5a-1" value="1" style="ellipse;whiteSpace=wrap;html=1;rounded=0;shadow=1;strokeColor=#666666;strokeWidth=4;fontSize=30;align=center;fillColor=#f5f5f5;" vertex="1" parent="1">
          <mxGeometry x="120" y="660" width="80" height="80" as="geometry" />
        </mxCell>
        <mxCell id="zdQ3T39eUNu5po6wPQad-41" style="rounded=0;orthogonalLoop=1;jettySize=auto;html=1;exitX=1;exitY=0.5;exitDx=0;exitDy=0;entryX=0;entryY=0.5;entryDx=0;entryDy=0;strokeWidth=2;" edge="1" parent="1" source="f0bcc99304e6f5a-3" target="5CluAGCaZSxas8Q9r9-t-10">
          <mxGeometry relative="1" as="geometry" />
        </mxCell>
        <mxCell id="zdQ3T39eUNu5po6wPQad-50" style="rounded=0;orthogonalLoop=1;jettySize=auto;html=1;exitX=1;exitY=0.5;exitDx=0;exitDy=0;entryX=0;entryY=0.5;entryDx=0;entryDy=0;strokeWidth=2;" edge="1" parent="1" source="f0bcc99304e6f5a-3" target="zdQ3T39eUNu5po6wPQad-49">
          <mxGeometry relative="1" as="geometry" />
        </mxCell>
        <mxCell id="SlHkn8aIZK3u-bcJXEoW-1" style="rounded=0;orthogonalLoop=1;jettySize=auto;html=1;exitX=1;exitY=0.5;exitDx=0;exitDy=0;entryX=0;entryY=0.5;entryDx=0;entryDy=0;fillColor=#f8cecc;strokeColor=#b85450;strokeWidth=5;" edge="1" parent="1" source="f0bcc99304e6f5a-3" target="zdQ3T39eUNu5po6wPQad-36">
          <mxGeometry relative="1" as="geometry" />
        </mxCell>
        <mxCell id="SlHkn8aIZK3u-bcJXEoW-116" style="rounded=0;orthogonalLoop=1;jettySize=auto;html=1;exitX=1;exitY=0.5;exitDx=0;exitDy=0;entryX=0;entryY=0.5;entryDx=0;entryDy=0;strokeWidth=2;" edge="1" parent="1" source="f0bcc99304e6f5a-3" target="zdQ3T39eUNu5po6wPQad-45">
          <mxGeometry relative="1" as="geometry" />
        </mxCell>
        <mxCell id="f0bcc99304e6f5a-3" value="2" style="ellipse;whiteSpace=wrap;html=1;rounded=0;shadow=1;strokeColor=#666666;strokeWidth=1;fontSize=30;align=center;fillColor=#f5f5f5;" vertex="1" parent="1">
          <mxGeometry x="360" y="660" width="80" height="80" as="geometry" />
        </mxCell>
        <mxCell id="f0bcc99304e6f5a-28" value="A=7" style="text;html=1;strokeColor=none;fillColor=none;align=center;verticalAlign=middle;whiteSpace=wrap;rounded=0;shadow=1;labelBackgroundColor=none;fontSize=20;" vertex="1" parent="1">
          <mxGeometry x="260" y="670" width="40" height="20" as="geometry" />
        </mxCell>
        <mxCell id="f0bcc99304e6f5a-30" value="C = 2" style="text;html=1;strokeColor=none;fillColor=none;align=center;verticalAlign=middle;whiteSpace=wrap;rounded=0;shadow=1;labelBackgroundColor=none;fontSize=20;rotation=-30;" vertex="1" parent="1">
          <mxGeometry x="460" y="620" width="130" height="20" as="geometry" />
        </mxCell>
        <mxCell id="SlHkn8aIZK3u-bcJXEoW-6" style="rounded=0;orthogonalLoop=1;jettySize=auto;html=1;exitX=1;exitY=0.5;exitDx=0;exitDy=0;entryX=0;entryY=0.5;entryDx=0;entryDy=0;strokeWidth=2;" edge="1" parent="1" source="5CluAGCaZSxas8Q9r9-t-10" target="zdQ3T39eUNu5po6wPQad-53">
          <mxGeometry relative="1" as="geometry" />
        </mxCell>
        <mxCell id="SlHkn8aIZK3u-bcJXEoW-7" style="rounded=0;orthogonalLoop=1;jettySize=auto;html=1;entryX=0;entryY=0.5;entryDx=0;entryDy=0;exitX=1;exitY=0.5;exitDx=0;exitDy=0;strokeWidth=2;" edge="1" parent="1" source="5CluAGCaZSxas8Q9r9-t-10" target="SlHkn8aIZK3u-bcJXEoW-3">
          <mxGeometry relative="1" as="geometry" />
        </mxCell>
        <mxCell id="zdQ3T39eUNu5po6wPQad-17" value="&lt;div&gt;&lt;div&gt;&lt;table style=&quot;table-layout: fixed; font-size: 10pt; font-family: Arial; width: 0px; border-collapse: collapse; border: none;&quot; data-sheets-baot=&quot;1&quot; data-sheets-root=&quot;1&quot; border=&quot;1&quot; dir=&quot;ltr&quot; cellpadding=&quot;0&quot; cellspacing=&quot;0&quot; xmlns=&quot;http://www.w3.org/1999/xhtml&quot;&gt;&lt;colgroup&gt;&lt;col width=&quot;100&quot;&gt;&lt;col width=&quot;403&quot;&gt;&lt;col width=&quot;100&quot;&gt;&lt;/colgroup&gt;&lt;tbody&gt;&lt;tr style=&quot;height: 21px;&quot;&gt;&lt;td style=&quot;border: 1px solid rgb(204, 204, 204); overflow: hidden; padding: 2px 3px; vertical-align: bottom;&quot;&gt;ID&lt;/td&gt;&lt;td style=&quot;border: 1px solid rgb(204, 204, 204); overflow: hidden; padding: 2px 3px; vertical-align: bottom;&quot;&gt;Actividad&lt;/td&gt;&lt;td style=&quot;border: 1px solid rgb(204, 204, 204); overflow: hidden; padding: 2px 3px; vertical-align: bottom;&quot;&gt;Predecesoras&lt;/td&gt;&lt;/tr&gt;&lt;tr style=&quot;height: 21px;&quot;&gt;&lt;td style=&quot;border: 1px solid rgb(204, 204, 204); overflow: hidden; padding: 2px 3px; vertical-align: bottom;&quot;&gt;A&lt;/td&gt;&lt;td style=&quot;border: 1px solid rgb(204, 204, 204); overflow: hidden; padding: 2px 3px; vertical-align: bottom;&quot;&gt;Formación del grupo y asignación de roles&lt;/td&gt;&lt;td style=&quot;border: 1px solid rgb(204, 204, 204); overflow: hidden; padding: 2px 3px; vertical-align: bottom;&quot;&gt;-&lt;/td&gt;&lt;/tr&gt;&lt;tr style=&quot;height: 21px;&quot;&gt;&lt;td style=&quot;border: 1px solid rgb(204, 204, 204); overflow: hidden; padding: 2px 3px; vertical-align: bottom;&quot;&gt;B&lt;/td&gt;&lt;td style=&quot;border: 1px solid rgb(204, 204, 204); overflow: hidden; padding: 2px 3px; vertical-align: bottom;&quot;&gt;Definición de identidad del grupo (nombre, roles, logo, slogan)&lt;/td&gt;&lt;td style=&quot;border: 1px solid rgb(204, 204, 204); overflow: hidden; padding: 2px 3px; vertical-align: bottom;&quot;&gt;A&lt;/td&gt;&lt;/tr&gt;&lt;tr style=&quot;height: 21px;&quot;&gt;&lt;td style=&quot;border: 1px solid rgb(204, 204, 204); overflow: hidden; padding: 2px 3px; vertical-align: bottom;&quot;&gt;C&lt;/td&gt;&lt;td style=&quot;border: 1px solid rgb(204, 204, 204); overflow: hidden; padding: 2px 3px; vertical-align: bottom;&quot;&gt;Asignación de responsabilidades por materia&lt;/td&gt;&lt;td style=&quot;border: 1px solid rgb(204, 204, 204); overflow: hidden; padding: 2px 3px; vertical-align: bottom;&quot;&gt;A&lt;/td&gt;&lt;/tr&gt;&lt;tr style=&quot;height: 21px;&quot;&gt;&lt;td style=&quot;border: 1px solid rgb(204, 204, 204); overflow: hidden; padding: 2px 3px; vertical-align: bottom;&quot;&gt;D&lt;/td&gt;&lt;td style=&quot;border: 1px solid rgb(204, 204, 204); overflow: hidden; padding: 2px 3px; vertical-align: bottom;&quot;&gt;Recolección de info básica sobre el juego&lt;/td&gt;&lt;td style=&quot;border: 1px solid rgb(204, 204, 204); overflow: hidden; padding: 2px 3px; vertical-align: bottom;&quot;&gt;A&lt;/td&gt;&lt;/tr&gt;&lt;tr style=&quot;height: 21px;&quot;&gt;&lt;td style=&quot;border: 1px solid rgb(204, 204, 204); overflow: hidden; padding: 2px 3px; vertical-align: bottom;&quot;&gt;E&lt;/td&gt;&lt;td style=&quot;border: 1px solid rgb(204, 204, 204); overflow: hidden; padding: 2px 3px; vertical-align: bottom;&quot;&gt;Redacción de ficha técnica y descripción del juego&lt;/td&gt;&lt;td style=&quot;border: 1px solid rgb(204, 204, 204); overflow: hidden; padding: 2px 3px; vertical-align: bottom;&quot;&gt;D&lt;/td&gt;&lt;/tr&gt;&lt;tr style=&quot;height: 21px;&quot;&gt;&lt;td style=&quot;border: 1px solid rgb(204, 204, 204); overflow: hidden; padding: 2px 3px; vertical-align: bottom;&quot;&gt;F&lt;/td&gt;&lt;td style=&quot;border: 1px solid rgb(204, 204, 204); overflow: hidden; padding: 2px 3px; vertical-align: bottom;&quot;&gt;Misión, visión, valores, forma jurídica, localización&lt;/td&gt;&lt;td style=&quot;border: 1px solid rgb(204, 204, 204); overflow: hidden; padding: 2px 3px; vertical-align: bottom;&quot;&gt;B&lt;/td&gt;&lt;/tr&gt;&lt;tr style=&quot;height: 21px;&quot;&gt;&lt;td style=&quot;border: 1px solid rgb(204, 204, 204); overflow: hidden; padding: 2px 3px; vertical-align: bottom;&quot;&gt;G&lt;/td&gt;&lt;td style=&quot;border: 1px solid rgb(204, 204, 204); overflow: hidden; padding: 2px 3px; vertical-align: bottom;&quot;&gt;Preparación de documentación institucional (portada, carta, índice)&lt;/td&gt;&lt;td style=&quot;border: 1px solid rgb(204, 204, 204); overflow: hidden; padding: 2px 3px; vertical-align: bottom;&quot;&gt;B&lt;/td&gt;&lt;/tr&gt;&lt;tr style=&quot;height: 21px;&quot;&gt;&lt;td style=&quot;border: 1px solid rgb(204, 204, 204); overflow: hidden; padding: 2px 3px; vertical-align: bottom;&quot;&gt;H&lt;/td&gt;&lt;td style=&quot;border: 1px solid rgb(204, 204, 204); overflow: hidden; padding: 2px 3px; vertical-align: bottom;&quot;&gt;Reglas del grupo + paradigma de equipo&lt;/td&gt;&lt;td style=&quot;border: 1px solid rgb(204, 204, 204); overflow: hidden; padding: 2px 3px; vertical-align: bottom;&quot;&gt;A&lt;/td&gt;&lt;/tr&gt;&lt;tr style=&quot;height: 21px;&quot;&gt;&lt;td style=&quot;border: 1px solid rgb(204, 204, 204); overflow: hidden; padding: 2px 3px; vertical-align: bottom;&quot;&gt;I&lt;/td&gt;&lt;td style=&quot;border: 1px solid rgb(204, 204, 204); overflow: hidden; padding: 2px 3px; vertical-align: bottom;&quot;&gt;Relevamiento del sistema (funcional/técnico)&lt;/td&gt;&lt;td style=&quot;border: 1px solid rgb(204, 204, 204); overflow: hidden; padding: 2px 3px; vertical-align: bottom;&quot;&gt;C&lt;/td&gt;&lt;/tr&gt;&lt;tr style=&quot;height: 21px;&quot;&gt;&lt;td style=&quot;border: 1px solid rgb(204, 204, 204); overflow: hidden; padding: 2px 3px; vertical-align: bottom;&quot;&gt;J&lt;/td&gt;&lt;td style=&quot;border: 1px solid rgb(204, 204, 204); overflow: hidden; padding: 2px 3px; vertical-align: bottom;&quot;&gt;Estudio de factibilidad&lt;/td&gt;&lt;td style=&quot;border: 1px solid rgb(204, 204, 204); overflow: hidden; padding: 2px 3px; vertical-align: bottom;&quot;&gt;I&lt;/td&gt;&lt;/tr&gt;&lt;tr style=&quot;height: 21px;&quot;&gt;&lt;td style=&quot;border: 1px solid rgb(204, 204, 204); overflow: hidden; padding: 2px 3px; vertical-align: bottom;&quot;&gt;L&lt;/td&gt;&lt;td style=&quot;border: 1px solid rgb(204, 204, 204); overflow: hidden; padding: 2px 3px; vertical-align: bottom;&quot;&gt;ESRE (Especificación de Requisitos)&lt;/td&gt;&lt;td style=&quot;border: 1px solid rgb(204, 204, 204); overflow: hidden; padding: 2px 3px; vertical-align: bottom;&quot;&gt;J&lt;/td&gt;&lt;/tr&gt;&lt;tr style=&quot;height: 21px;&quot;&gt;&lt;td style=&quot;border: 1px solid rgb(204, 204, 204); overflow: hidden; padding: 2px 3px; vertical-align: bottom;&quot;&gt;K&lt;/td&gt;&lt;td style=&quot;border: 1px solid rgb(204, 204, 204); overflow: hidden; padding: 2px 3px; vertical-align: bottom;&quot;&gt;Justificación tecnológica&lt;/td&gt;&lt;td style=&quot;border: 1px solid rgb(204, 204, 204); overflow: hidden; padding: 2px 3px; vertical-align: bottom;&quot;&gt;L&lt;/td&gt;&lt;/tr&gt;&lt;tr style=&quot;height: 21px;&quot;&gt;&lt;td style=&quot;border: 1px solid rgb(204, 204, 204); overflow: hidden; padding: 2px 3px; vertical-align: bottom;&quot;&gt;M&lt;/td&gt;&lt;td style=&quot;border: 1px solid rgb(204, 204, 204); overflow: hidden; padding: 2px 3px; vertical-align: bottom;&quot;&gt;Árboles y tablas de decisión&lt;/td&gt;&lt;td style=&quot;border: 1px solid rgb(204, 204, 204); overflow: hidden; padding: 2px 3px; vertical-align: bottom;&quot;&gt;L&lt;/td&gt;&lt;/tr&gt;&lt;tr style=&quot;height: 21px;&quot;&gt;&lt;td style=&quot;border: 1px solid rgb(204, 204, 204); overflow: hidden; padding: 2px 3px; vertical-align: bottom;&quot;&gt;N&lt;/td&gt;&lt;td style=&quot;border: 1px solid rgb(204, 204, 204); overflow: hidden; padding: 2px 3px; vertical-align: bottom;&quot;&gt;Ciclo de vida seleccionado y justificado&lt;/td&gt;&lt;td style=&quot;border: 1px solid rgb(204, 204, 204); overflow: hidden; padding: 2px 3px; vertical-align: bottom;&quot;&gt;L&lt;/td&gt;&lt;/tr&gt;&lt;tr style=&quot;height: 21px;&quot;&gt;&lt;td style=&quot;border: 1px solid rgb(204, 204, 204); overflow: hidden; padding: 2px 3px; vertical-align: bottom;&quot;&gt;O&lt;/td&gt;&lt;td style=&quot;border: 1px solid rgb(204, 204, 204); overflow: hidden; padding: 2px 3px; vertical-align: bottom;&quot;&gt;Planificación inicial (Gantt + cronograma + PERT)&lt;/td&gt;&lt;td style=&quot;border: 1px solid rgb(204, 204, 204); overflow: hidden; padding: 2px 3px; vertical-align: bottom;&quot;&gt;L&lt;/td&gt;&lt;/tr&gt;&lt;tr style=&quot;height: 21px;&quot;&gt;&lt;td style=&quot;border: 1px solid rgb(204, 204, 204); overflow: hidden; padding: 2px 3px; vertical-align: bottom;&quot;&gt;P&lt;/td&gt;&lt;td style=&quot;border: 1px solid rgb(204, 204, 204); overflow: hidden; padding: 2px 3px; vertical-align: bottom;&quot;&gt;Prototipo UI navegable&lt;/td&gt;&lt;td style=&quot;border: 1px solid rgb(204, 204, 204); overflow: hidden; padding: 2px 3px; vertical-align: bottom;&quot;&gt;K&lt;/td&gt;&lt;/tr&gt;&lt;tr style=&quot;height: 21px;&quot;&gt;&lt;td style=&quot;border: 1px solid rgb(204, 204, 204); overflow: hidden; padding: 2px 3px; vertical-align: bottom;&quot;&gt;Q&lt;/td&gt;&lt;td style=&quot;border: 1px solid rgb(204, 204, 204); overflow: hidden; padding: 2px 3px; vertical-align: bottom;&quot;&gt;Diseño responsivo básico&lt;/td&gt;&lt;td style=&quot;border: 1px solid rgb(204, 204, 204); overflow: hidden; padding: 2px 3px; vertical-align: bottom;&quot;&gt;P&lt;/td&gt;&lt;/tr&gt;&lt;tr style=&quot;height: 21px;&quot;&gt;&lt;td style=&quot;border: 1px solid rgb(204, 204, 204); overflow: hidden; padding: 2px 3px; vertical-align: bottom;&quot;&gt;R&lt;/td&gt;&lt;td style=&quot;border: 1px solid rgb(204, 204, 204); overflow: hidden; padding: 2px 3px; vertical-align: bottom;&quot;&gt;Configuración del entorno de desarrollo&lt;/td&gt;&lt;td style=&quot;border: 1px solid rgb(204, 204, 204); overflow: hidden; padding: 2px 3px; vertical-align: bottom;&quot;&gt;K&lt;/td&gt;&lt;/tr&gt;&lt;tr style=&quot;height: 21px;&quot;&gt;&lt;td style=&quot;border: 1px solid rgb(204, 204, 204); overflow: hidden; padding: 2px 3px; vertical-align: bottom;&quot;&gt;S&lt;/td&gt;&lt;td style=&quot;border: 1px solid rgb(204, 204, 204); overflow: hidden; padding: 2px 3px; vertical-align: bottom;&quot;&gt;Repositorio Git + README&lt;/td&gt;&lt;td style=&quot;border: 1px solid rgb(204, 204, 204); overflow: hidden; padding: 2px 3px; vertical-align: bottom;&quot;&gt;B, Q, R&lt;/td&gt;&lt;/tr&gt;&lt;tr style=&quot;height: 21px;&quot;&gt;&lt;td style=&quot;border: 1px solid rgb(204, 204, 204); overflow: hidden; padding: 2px 3px; vertical-align: bottom;&quot;&gt;T&lt;/td&gt;&lt;td style=&quot;border: 1px solid rgb(204, 204, 204); overflow: hidden; padding: 2px 3px; vertical-align: bottom;&quot;&gt;Diseño dado y tablero físico (boceto)&lt;/td&gt;&lt;td style=&quot;border: 1px solid rgb(204, 204, 204); overflow: hidden; padding: 2px 3px; vertical-align: bottom;&quot;&gt;E&lt;/td&gt;&lt;/tr&gt;&lt;tr style=&quot;height: 21px;&quot;&gt;&lt;td style=&quot;border: 1px solid rgb(204, 204, 204); overflow: hidden; padding: 2px 3px; vertical-align: bottom;&quot;&gt;U&lt;/td&gt;&lt;td style=&quot;border: 1px solid rgb(204, 204, 204); overflow: hidden; padding: 2px 3px; vertical-align: bottom;&quot;&gt;Pantallas UI/UX gráficas (no funcionales)&lt;/td&gt;&lt;td style=&quot;border: 1px solid rgb(204, 204, 204); overflow: hidden; padding: 2px 3px; vertical-align: bottom;&quot;&gt;P&lt;/td&gt;&lt;/tr&gt;&lt;tr style=&quot;height: 21px;&quot;&gt;&lt;td style=&quot;border: 1px solid rgb(204, 204, 204); overflow: hidden; padding: 2px 3px; vertical-align: bottom;&quot;&gt;V&lt;/td&gt;&lt;td style=&quot;border: 1px solid rgb(204, 204, 204); overflow: hidden; padding: 2px 3px; vertical-align: bottom;&quot;&gt;Redacción académica sociológica&lt;/td&gt;&lt;td style=&quot;border: 1px solid rgb(204, 204, 204); overflow: hidden; padding: 2px 3px; vertical-align: bottom;&quot;&gt;E&lt;/td&gt;&lt;/tr&gt;&lt;tr style=&quot;height: 21px;&quot;&gt;&lt;td style=&quot;border: 1px solid rgb(204, 204, 204); overflow: hidden; padding: 2px 3px; vertical-align: bottom;&quot;&gt;W&lt;/td&gt;&lt;td style=&quot;border: 1px solid rgb(204, 204, 204); overflow: hidden; padding: 2px 3px; vertical-align: bottom;&quot;&gt;Reflexión sobre público objetivo&lt;/td&gt;&lt;td style=&quot;border: 1px solid rgb(204, 204, 204); overflow: hidden; padding: 2px 3px; vertical-align: bottom;&quot;&gt;V&lt;/td&gt;&lt;/tr&gt;&lt;tr style=&quot;height: 21px;&quot;&gt;&lt;td style=&quot;border: 1px solid rgb(204, 204, 204); overflow: hidden; padding: 2px 3px; vertical-align: bottom;&quot;&gt;X&lt;/td&gt;&lt;td style=&quot;border: 1px solid rgb(204, 204, 204); overflow: hidden; padding: 2px 3px; vertical-align: bottom;&quot;&gt;Idea del parque físico (Física)&lt;/td&gt;&lt;td style=&quot;border: 1px solid rgb(204, 204, 204); overflow: hidden; padding: 2px 3px; vertical-align: bottom;&quot;&gt;E&lt;/td&gt;&lt;/tr&gt;&lt;tr style=&quot;height: 21px;&quot;&gt;&lt;td style=&quot;border: 1px solid rgb(204, 204, 204); overflow: hidden; padding: 2px 3px; vertical-align: bottom;&quot;&gt;Y&lt;/td&gt;&lt;td style=&quot;border: 1px solid rgb(204, 204, 204); overflow: hidden; padding: 2px 3px; vertical-align: bottom;&quot;&gt;Relevamiento del sistema operativo servidor&lt;/td&gt;&lt;td style=&quot;border: 1px solid rgb(204, 204, 204); overflow: hidden; padding: 2px 3px; vertical-align: bottom;&quot;&gt;J&lt;/td&gt;&lt;/tr&gt;&lt;tr style=&quot;height: 21px;&quot;&gt;&lt;td style=&quot;border: 1px solid rgb(204, 204, 204); overflow: hidden; padding: 2px 3px; vertical-align: bottom;&quot;&gt;Z&lt;/td&gt;&lt;td style=&quot;border: 1px solid rgb(204, 204, 204); overflow: hidden; padding: 2px 3px; vertical-align: bottom;&quot;&gt;Manual de instalación del SO&lt;/td&gt;&lt;td style=&quot;border: 1px solid rgb(204, 204, 204); overflow: hidden; padding: 2px 3px; vertical-align: bottom;&quot;&gt;Y&lt;/td&gt;&lt;/tr&gt;&lt;tr style=&quot;height: 21px;&quot;&gt;&lt;td style=&quot;border: 1px solid rgb(204, 204, 204); overflow: hidden; padding: 2px 3px; vertical-align: bottom;&quot;&gt;AA&lt;/td&gt;&lt;td style=&quot;border: 1px solid rgb(204, 204, 204); overflow: hidden; padding: 2px 3px; vertical-align: bottom;&quot;&gt;Instalación y configuración de la red&lt;/td&gt;&lt;td style=&quot;border: 1px solid rgb(204, 204, 204); overflow: hidden; padding: 2px 3px; vertical-align: bottom;&quot;&gt;Y&lt;/td&gt;&lt;/tr&gt;&lt;tr style=&quot;height: 21px;&quot;&gt;&lt;td style=&quot;border: 1px solid rgb(204, 204, 204); overflow: hidden; padding: 2px 3px; vertical-align: bottom;&quot;&gt;AB&lt;/td&gt;&lt;td style=&quot;border: 1px solid rgb(204, 204, 204); overflow: hidden; padding: 2px 3px; vertical-align: bottom;&quot;&gt;Gestión y administración de paquetes del sistema operativo&lt;/td&gt;&lt;td style=&quot;border: 1px solid rgb(204, 204, 204); overflow: hidden; padding: 2px 3px; vertical-align: bottom;&quot;&gt;AA&lt;/td&gt;&lt;/tr&gt;&lt;/tbody&gt;&lt;/table&gt;&lt;/div&gt;&lt;/div&gt;" style="text;html=1;align=left;verticalAlign=middle;resizable=0;points=[];autosize=1;strokeColor=none;fillColor=none;" vertex="1" parent="1">
          <mxGeometry x="250" y="-890" width="630" height="620" as="geometry" />
        </mxCell>
        <mxCell id="SlHkn8aIZK3u-bcJXEoW-12" style="edgeStyle=orthogonalEdgeStyle;rounded=0;orthogonalLoop=1;jettySize=auto;html=1;entryX=0;entryY=0.5;entryDx=0;entryDy=0;fillColor=#f8cecc;strokeColor=#b85450;strokeWidth=5;" edge="1" parent="1" source="zdQ3T39eUNu5po6wPQad-36" target="SlHkn8aIZK3u-bcJXEoW-4">
          <mxGeometry relative="1" as="geometry" />
        </mxCell>
        <mxCell id="zdQ3T39eUNu5po6wPQad-36" value="4" style="ellipse;whiteSpace=wrap;html=1;rounded=0;shadow=1;strokeColor=#666666;strokeWidth=1;fontSize=30;align=center;fillColor=#f5f5f5;" vertex="1" parent="1">
          <mxGeometry x="640" y="560" width="80" height="80" as="geometry" />
        </mxCell>
        <mxCell id="SlHkn8aIZK3u-bcJXEoW-14" style="edgeStyle=orthogonalEdgeStyle;rounded=0;orthogonalLoop=1;jettySize=auto;html=1;entryX=0;entryY=0.5;entryDx=0;entryDy=0;strokeWidth=2;" edge="1" parent="1" source="zdQ3T39eUNu5po6wPQad-45" target="SlHkn8aIZK3u-bcJXEoW-5">
          <mxGeometry relative="1" as="geometry" />
        </mxCell>
        <mxCell id="SlHkn8aIZK3u-bcJXEoW-4" value="9" style="ellipse;whiteSpace=wrap;html=1;rounded=0;shadow=1;strokeColor=#666666;strokeWidth=1;fontSize=30;align=center;fillColor=#f5f5f5;" vertex="1" parent="1">
          <mxGeometry x="880" y="560" width="80" height="80" as="geometry" />
        </mxCell>
        <mxCell id="SlHkn8aIZK3u-bcJXEoW-23" style="rounded=0;orthogonalLoop=1;jettySize=auto;html=1;entryX=0;entryY=0.5;entryDx=0;entryDy=0;exitX=1;exitY=0.5;exitDx=0;exitDy=0;strokeWidth=2;" edge="1" parent="1" source="SlHkn8aIZK3u-bcJXEoW-5" target="SlHkn8aIZK3u-bcJXEoW-20">
          <mxGeometry relative="1" as="geometry" />
        </mxCell>
        <mxCell id="SlHkn8aIZK3u-bcJXEoW-24" style="rounded=0;orthogonalLoop=1;jettySize=auto;html=1;exitX=1;exitY=0.5;exitDx=0;exitDy=0;entryX=0;entryY=0.5;entryDx=0;entryDy=0;strokeWidth=2;" edge="1" parent="1" source="SlHkn8aIZK3u-bcJXEoW-5" target="SlHkn8aIZK3u-bcJXEoW-21">
          <mxGeometry relative="1" as="geometry" />
        </mxCell>
        <mxCell id="SlHkn8aIZK3u-bcJXEoW-13" value="I = 7" style="text;html=1;strokeColor=none;fillColor=none;align=center;verticalAlign=middle;whiteSpace=wrap;rounded=0;shadow=1;labelBackgroundColor=none;fontSize=20;" vertex="1" parent="1">
          <mxGeometry x="731" y="560" width="150" height="20" as="geometry" />
        </mxCell>
        <mxCell id="SlHkn8aIZK3u-bcJXEoW-32" style="rounded=0;orthogonalLoop=1;jettySize=auto;html=1;entryX=0;entryY=0.5;entryDx=0;entryDy=0;exitX=1;exitY=0.5;exitDx=0;exitDy=0;fillColor=#f8cecc;strokeColor=#b85450;strokeWidth=5;" edge="1" parent="1" source="SlHkn8aIZK3u-bcJXEoW-16" target="SlHkn8aIZK3u-bcJXEoW-29">
          <mxGeometry relative="1" as="geometry" />
        </mxCell>
        <mxCell id="SlHkn8aIZK3u-bcJXEoW-33" style="rounded=0;orthogonalLoop=1;jettySize=auto;html=1;entryX=0;entryY=0.5;entryDx=0;entryDy=0;exitX=1;exitY=0.5;exitDx=0;exitDy=0;strokeWidth=2;" edge="1" parent="1" source="SlHkn8aIZK3u-bcJXEoW-16" target="SlHkn8aIZK3u-bcJXEoW-30">
          <mxGeometry relative="1" as="geometry" />
        </mxCell>
        <mxCell id="SlHkn8aIZK3u-bcJXEoW-16" value="11" style="ellipse;whiteSpace=wrap;html=1;rounded=0;shadow=1;strokeColor=#666666;strokeWidth=1;fontSize=30;align=center;fillColor=#f5f5f5;" vertex="1" parent="1">
          <mxGeometry x="1120" y="560" width="80" height="80" as="geometry" />
        </mxCell>
        <mxCell id="SlHkn8aIZK3u-bcJXEoW-17" style="edgeStyle=orthogonalEdgeStyle;rounded=0;orthogonalLoop=1;jettySize=auto;html=1;fillColor=#f8cecc;strokeColor=#b85450;strokeWidth=5;" edge="1" parent="1" source="SlHkn8aIZK3u-bcJXEoW-4" target="SlHkn8aIZK3u-bcJXEoW-16">
          <mxGeometry relative="1" as="geometry" />
        </mxCell>
        <mxCell id="SlHkn8aIZK3u-bcJXEoW-18" value="J = 3" style="text;html=1;strokeColor=none;fillColor=none;align=center;verticalAlign=middle;whiteSpace=wrap;rounded=0;shadow=1;labelBackgroundColor=none;fontSize=20;" vertex="1" parent="1">
          <mxGeometry x="967.83" y="570" width="120" height="20" as="geometry" />
        </mxCell>
        <mxCell id="SlHkn8aIZK3u-bcJXEoW-67" style="edgeStyle=orthogonalEdgeStyle;rounded=0;orthogonalLoop=1;jettySize=auto;html=1;entryX=0;entryY=0.5;entryDx=0;entryDy=0;strokeWidth=2;" edge="1" parent="1" source="SlHkn8aIZK3u-bcJXEoW-20" target="SlHkn8aIZK3u-bcJXEoW-66">
          <mxGeometry relative="1" as="geometry" />
        </mxCell>
        <mxCell id="SlHkn8aIZK3u-bcJXEoW-42" style="rounded=0;orthogonalLoop=1;jettySize=auto;html=1;exitX=1;exitY=0.5;exitDx=0;exitDy=0;entryX=0;entryY=0.5;entryDx=0;entryDy=0;fillColor=#f8cecc;strokeColor=#b85450;strokeWidth=5;" edge="1" parent="1" source="SlHkn8aIZK3u-bcJXEoW-29" target="SlHkn8aIZK3u-bcJXEoW-39">
          <mxGeometry relative="1" as="geometry" />
        </mxCell>
        <mxCell id="SlHkn8aIZK3u-bcJXEoW-43" style="rounded=0;orthogonalLoop=1;jettySize=auto;html=1;exitX=1;exitY=0.5;exitDx=0;exitDy=0;entryX=0;entryY=0.5;entryDx=0;entryDy=0;strokeWidth=2;" edge="1" parent="1" source="SlHkn8aIZK3u-bcJXEoW-29" target="SlHkn8aIZK3u-bcJXEoW-38">
          <mxGeometry relative="1" as="geometry" />
        </mxCell>
        <mxCell id="SlHkn8aIZK3u-bcJXEoW-44" style="rounded=0;orthogonalLoop=1;jettySize=auto;html=1;exitX=1;exitY=0.5;exitDx=0;exitDy=0;entryX=0;entryY=0.5;entryDx=0;entryDy=0;strokeWidth=2;" edge="1" parent="1" source="SlHkn8aIZK3u-bcJXEoW-29" target="SlHkn8aIZK3u-bcJXEoW-37">
          <mxGeometry relative="1" as="geometry" />
        </mxCell>
        <mxCell id="SlHkn8aIZK3u-bcJXEoW-45" style="rounded=0;orthogonalLoop=1;jettySize=auto;html=1;exitX=1;exitY=0.5;exitDx=0;exitDy=0;entryX=0;entryY=0.5;entryDx=0;entryDy=0;strokeWidth=2;" edge="1" parent="1" source="SlHkn8aIZK3u-bcJXEoW-29" target="SlHkn8aIZK3u-bcJXEoW-41">
          <mxGeometry relative="1" as="geometry" />
        </mxCell>
        <mxCell id="SlHkn8aIZK3u-bcJXEoW-71" style="rounded=0;orthogonalLoop=1;jettySize=auto;html=1;exitX=1;exitY=0.5;exitDx=0;exitDy=0;entryX=0;entryY=0.5;entryDx=0;entryDy=0;strokeWidth=2;" edge="1" parent="1" source="SlHkn8aIZK3u-bcJXEoW-30" target="SlHkn8aIZK3u-bcJXEoW-69">
          <mxGeometry relative="1" as="geometry" />
        </mxCell>
        <mxCell id="SlHkn8aIZK3u-bcJXEoW-72" style="rounded=0;orthogonalLoop=1;jettySize=auto;html=1;exitX=1;exitY=0.5;exitDx=0;exitDy=0;entryX=0;entryY=0.5;entryDx=0;entryDy=0;strokeWidth=2;" edge="1" parent="1" source="SlHkn8aIZK3u-bcJXEoW-30" target="SlHkn8aIZK3u-bcJXEoW-70">
          <mxGeometry relative="1" as="geometry" />
        </mxCell>
        <mxCell id="SlHkn8aIZK3u-bcJXEoW-185" style="rounded=0;orthogonalLoop=1;jettySize=auto;html=1;exitX=1;exitY=0.5;exitDx=0;exitDy=0;entryX=0;entryY=0.5;entryDx=0;entryDy=0;dashed=1;" edge="1" parent="1" source="SlHkn8aIZK3u-bcJXEoW-38" target="SlHkn8aIZK3u-bcJXEoW-100">
          <mxGeometry relative="1" as="geometry" />
        </mxCell>
        <mxCell id="SlHkn8aIZK3u-bcJXEoW-38" value="19" style="ellipse;whiteSpace=wrap;html=1;rounded=0;shadow=1;strokeColor=#666666;strokeWidth=1;fontSize=30;align=center;fillColor=#f5f5f5;" vertex="1" parent="1">
          <mxGeometry x="1900" y="270" width="80" height="80" as="geometry" />
        </mxCell>
        <mxCell id="SlHkn8aIZK3u-bcJXEoW-53" style="rounded=0;orthogonalLoop=1;jettySize=auto;html=1;exitX=1;exitY=0.5;exitDx=0;exitDy=0;entryX=0;entryY=0.5;entryDx=0;entryDy=0;fillColor=#f8cecc;strokeColor=#b85450;strokeWidth=5;" edge="1" parent="1" source="SlHkn8aIZK3u-bcJXEoW-39" target="SlHkn8aIZK3u-bcJXEoW-40">
          <mxGeometry relative="1" as="geometry" />
        </mxCell>
        <mxCell id="SlHkn8aIZK3u-bcJXEoW-56" style="rounded=0;orthogonalLoop=1;jettySize=auto;html=1;entryX=0;entryY=0.5;entryDx=0;entryDy=0;strokeWidth=2;" edge="1" parent="1" source="SlHkn8aIZK3u-bcJXEoW-39" target="SlHkn8aIZK3u-bcJXEoW-55">
          <mxGeometry relative="1" as="geometry" />
        </mxCell>
        <mxCell id="SlHkn8aIZK3u-bcJXEoW-62" style="rounded=0;orthogonalLoop=1;jettySize=auto;html=1;entryX=0;entryY=0.5;entryDx=0;entryDy=0;exitX=1;exitY=0.5;exitDx=0;exitDy=0;strokeWidth=2;" edge="1" parent="1" source="SlHkn8aIZK3u-bcJXEoW-40" target="SlHkn8aIZK3u-bcJXEoW-60">
          <mxGeometry relative="1" as="geometry" />
        </mxCell>
        <mxCell id="SlHkn8aIZK3u-bcJXEoW-63" style="rounded=0;orthogonalLoop=1;jettySize=auto;html=1;exitX=1;exitY=0.5;exitDx=0;exitDy=0;entryX=0;entryY=0.5;entryDx=0;entryDy=0;fillColor=#f8cecc;strokeColor=#b85450;strokeWidth=5;" edge="1" parent="1" source="SlHkn8aIZK3u-bcJXEoW-40" target="SlHkn8aIZK3u-bcJXEoW-93">
          <mxGeometry relative="1" as="geometry">
            <mxPoint x="2320" y="80" as="targetPoint" />
          </mxGeometry>
        </mxCell>
        <mxCell id="SlHkn8aIZK3u-bcJXEoW-49" value="M = 3" style="text;html=1;strokeColor=none;fillColor=none;align=center;verticalAlign=middle;whiteSpace=wrap;rounded=0;shadow=1;labelBackgroundColor=none;fontSize=20;rotation=-15;" vertex="1" parent="1">
          <mxGeometry x="1520" y="340" width="120" height="20" as="geometry" />
        </mxCell>
        <mxCell id="SlHkn8aIZK3u-bcJXEoW-96" style="rounded=0;orthogonalLoop=1;jettySize=auto;html=1;dashed=1;entryX=0;entryY=0.5;entryDx=0;entryDy=0;" edge="1" parent="1" target="SlHkn8aIZK3u-bcJXEoW-93">
          <mxGeometry relative="1" as="geometry">
            <mxPoint x="2550" y="-415" as="targetPoint" />
            <mxPoint x="2080" y="-100" as="sourcePoint" />
          </mxGeometry>
        </mxCell>
        <mxCell id="SlHkn8aIZK3u-bcJXEoW-186" style="rounded=0;orthogonalLoop=1;jettySize=auto;html=1;exitX=1;exitY=0.5;exitDx=0;exitDy=0;dashed=1;" edge="1" parent="1" source="SlHkn8aIZK3u-bcJXEoW-60">
          <mxGeometry relative="1" as="geometry">
            <mxPoint x="3920" y="900" as="targetPoint" />
          </mxGeometry>
        </mxCell>
        <mxCell id="SlHkn8aIZK3u-bcJXEoW-64" value="Q = 7" style="text;html=1;strokeColor=none;fillColor=none;align=center;verticalAlign=middle;whiteSpace=wrap;rounded=0;shadow=1;labelBackgroundColor=none;fontSize=20;rotation=-55;" vertex="1" parent="1">
          <mxGeometry x="2180" y="-50" width="130" height="20" as="geometry" />
        </mxCell>
        <mxCell id="SlHkn8aIZK3u-bcJXEoW-65" value="U = 7" style="text;html=1;strokeColor=none;fillColor=none;align=center;verticalAlign=middle;whiteSpace=wrap;rounded=0;shadow=1;labelBackgroundColor=none;fontSize=20;rotation=0;" vertex="1" parent="1">
          <mxGeometry x="2150" y="170" width="160" height="20" as="geometry" />
        </mxCell>
        <mxCell id="SlHkn8aIZK3u-bcJXEoW-182" style="rounded=0;orthogonalLoop=1;jettySize=auto;html=1;exitX=1;exitY=0.5;exitDx=0;exitDy=0;entryX=0;entryY=0.5;entryDx=0;entryDy=0;dashed=1;" edge="1" parent="1" source="SlHkn8aIZK3u-bcJXEoW-69" target="SlHkn8aIZK3u-bcJXEoW-100">
          <mxGeometry relative="1" as="geometry" />
        </mxCell>
        <mxCell id="SlHkn8aIZK3u-bcJXEoW-69" value="22" style="ellipse;whiteSpace=wrap;html=1;rounded=0;shadow=1;strokeColor=#666666;strokeWidth=1;fontSize=30;align=center;fillColor=#f5f5f5;" vertex="1" parent="1">
          <mxGeometry x="1753.5" y="720" width="80" height="80" as="geometry" />
        </mxCell>
        <mxCell id="SlHkn8aIZK3u-bcJXEoW-76" style="rounded=0;orthogonalLoop=1;jettySize=auto;html=1;exitX=1;exitY=0.5;exitDx=0;exitDy=0;entryX=0;entryY=0.5;entryDx=0;entryDy=0;strokeWidth=2;" edge="1" parent="1" source="SlHkn8aIZK3u-bcJXEoW-70" target="SlHkn8aIZK3u-bcJXEoW-75">
          <mxGeometry relative="1" as="geometry" />
        </mxCell>
        <mxCell id="SlHkn8aIZK3u-bcJXEoW-73" value="Z = 7" style="text;html=1;strokeColor=none;fillColor=none;align=center;verticalAlign=middle;whiteSpace=wrap;rounded=0;shadow=1;labelBackgroundColor=none;fontSize=20;" vertex="1" parent="1">
          <mxGeometry x="1470" y="730" width="140" height="20" as="geometry" />
        </mxCell>
        <mxCell id="SlHkn8aIZK3u-bcJXEoW-101" style="rounded=0;orthogonalLoop=1;jettySize=auto;html=1;exitX=1;exitY=0.5;exitDx=0;exitDy=0;entryX=0;entryY=0.5;entryDx=0;entryDy=0;fillColor=#f8cecc;strokeColor=#b85450;strokeWidth=5;" edge="1" parent="1" source="SlHkn8aIZK3u-bcJXEoW-93" target="SlHkn8aIZK3u-bcJXEoW-100">
          <mxGeometry relative="1" as="geometry" />
        </mxCell>
        <mxCell id="SlHkn8aIZK3u-bcJXEoW-93" value="28" style="ellipse;whiteSpace=wrap;html=1;rounded=0;shadow=1;strokeColor=#666666;strokeWidth=1;fontSize=30;align=center;fillColor=#f5f5f5;" vertex="1" parent="1">
          <mxGeometry x="2550.5" y="-450" width="80" height="80" as="geometry" />
        </mxCell>
        <mxCell id="SlHkn8aIZK3u-bcJXEoW-104" value="T1 = 7&lt;br&gt;T2 = 7" style="text;html=1;strokeColor=none;fillColor=none;align=center;verticalAlign=middle;whiteSpace=wrap;rounded=0;shadow=1;labelBackgroundColor=none;fontSize=20;" vertex="1" parent="1">
          <mxGeometry x="350" y="590" width="100" height="50" as="geometry" />
        </mxCell>
        <mxCell id="SlHkn8aIZK3u-bcJXEoW-106" value="T1 = 9&lt;br&gt;T2 = 9" style="text;html=1;strokeColor=none;fillColor=none;align=center;verticalAlign=middle;whiteSpace=wrap;rounded=0;shadow=1;labelBackgroundColor=none;fontSize=20;" vertex="1" parent="1">
          <mxGeometry x="630" y="505" width="100" height="50" as="geometry" />
        </mxCell>
        <mxCell id="SlHkn8aIZK3u-bcJXEoW-111" value="T1 = 16&lt;br&gt;T2 = 16" style="text;html=1;strokeColor=none;fillColor=none;align=center;verticalAlign=middle;whiteSpace=wrap;rounded=0;shadow=1;labelBackgroundColor=none;fontSize=20;" vertex="1" parent="1">
          <mxGeometry x="876.5" y="500" width="100" height="50" as="geometry" />
        </mxCell>
        <mxCell id="SlHkn8aIZK3u-bcJXEoW-113" value="T1 = 19&lt;br&gt;T2 = 19" style="text;html=1;strokeColor=none;fillColor=none;align=center;verticalAlign=middle;whiteSpace=wrap;rounded=0;shadow=1;labelBackgroundColor=none;fontSize=20;" vertex="1" parent="1">
          <mxGeometry x="1110" y="495" width="100" height="50" as="geometry" />
        </mxCell>
        <mxCell id="SlHkn8aIZK3u-bcJXEoW-115" value="" style="group" connectable="0" vertex="1" parent="1">
          <mxGeometry x="530" y="1070" width="200" height="135" as="geometry" />
        </mxCell>
        <mxCell id="zdQ3T39eUNu5po6wPQad-45" value="5" style="ellipse;whiteSpace=wrap;html=1;rounded=0;shadow=1;strokeColor=#666666;strokeWidth=1;fontSize=30;align=center;fillColor=#f5f5f5;" vertex="1" parent="SlHkn8aIZK3u-bcJXEoW-115">
          <mxGeometry x="110" y="55" width="80" height="80" as="geometry" />
        </mxCell>
        <mxCell id="SlHkn8aIZK3u-bcJXEoW-107" value="T1 = 14&lt;br&gt;T2 = 39" style="text;html=1;strokeColor=none;fillColor=none;align=center;verticalAlign=middle;whiteSpace=wrap;rounded=0;shadow=1;labelBackgroundColor=none;fontSize=20;" vertex="1" parent="SlHkn8aIZK3u-bcJXEoW-115">
          <mxGeometry x="100" width="100" height="50" as="geometry" />
        </mxCell>
        <mxCell id="zdQ3T39eUNu5po6wPQad-48" value="D = 7" style="text;html=1;strokeColor=none;fillColor=none;align=center;verticalAlign=middle;whiteSpace=wrap;rounded=0;shadow=1;labelBackgroundColor=none;fontSize=20;rotation=60;" vertex="1" parent="1">
          <mxGeometry x="490" y="910" width="150" height="20" as="geometry" />
        </mxCell>
        <mxCell id="SlHkn8aIZK3u-bcJXEoW-121" value="" style="group" connectable="0" vertex="1" parent="1">
          <mxGeometry x="840" y="1065" width="180" height="140" as="geometry" />
        </mxCell>
        <mxCell id="SlHkn8aIZK3u-bcJXEoW-5" value="10" style="ellipse;whiteSpace=wrap;html=1;rounded=0;shadow=1;strokeColor=#666666;strokeWidth=1;fontSize=30;align=center;fillColor=#f5f5f5;" vertex="1" parent="SlHkn8aIZK3u-bcJXEoW-121">
          <mxGeometry x="86.5" y="60" width="80" height="80" as="geometry" />
        </mxCell>
        <mxCell id="SlHkn8aIZK3u-bcJXEoW-112" value="T1 = 21&lt;br&gt;T2 = 46" style="text;html=1;strokeColor=none;fillColor=none;align=center;verticalAlign=middle;whiteSpace=wrap;rounded=0;shadow=1;labelBackgroundColor=none;fontSize=20;" vertex="1" parent="SlHkn8aIZK3u-bcJXEoW-121">
          <mxGeometry x="80" width="100" height="50" as="geometry" />
        </mxCell>
        <mxCell id="SlHkn8aIZK3u-bcJXEoW-15" value="E = 7" style="text;html=1;strokeColor=none;fillColor=none;align=center;verticalAlign=middle;whiteSpace=wrap;rounded=0;shadow=1;labelBackgroundColor=none;fontSize=20;" vertex="1" parent="1">
          <mxGeometry x="730" y="1127.5" width="180" height="20" as="geometry" />
        </mxCell>
        <mxCell id="SlHkn8aIZK3u-bcJXEoW-124" value="" style="group" connectable="0" vertex="1" parent="1">
          <mxGeometry x="1460" y="1120" width="180" height="80" as="geometry" />
        </mxCell>
        <mxCell id="SlHkn8aIZK3u-bcJXEoW-66" value="17" style="ellipse;whiteSpace=wrap;html=1;rounded=0;shadow=1;strokeColor=#666666;strokeWidth=1;fontSize=30;align=center;fillColor=#f5f5f5;" vertex="1" parent="SlHkn8aIZK3u-bcJXEoW-124">
          <mxGeometry x="100" width="80" height="80" as="geometry" />
        </mxCell>
        <mxCell id="SlHkn8aIZK3u-bcJXEoW-68" value="W = 3" style="text;html=1;strokeColor=none;fillColor=none;align=center;verticalAlign=middle;whiteSpace=wrap;rounded=0;shadow=1;labelBackgroundColor=none;fontSize=20;" vertex="1" parent="1">
          <mxGeometry x="1360" y="1120" width="160" height="20" as="geometry" />
        </mxCell>
        <mxCell id="SlHkn8aIZK3u-bcJXEoW-125" style="rounded=0;orthogonalLoop=1;jettySize=auto;html=1;exitX=1;exitY=0.5;exitDx=0;exitDy=0;entryX=0;entryY=0.5;entryDx=0;entryDy=0;strokeWidth=2;" edge="1" parent="1" source="SlHkn8aIZK3u-bcJXEoW-5" target="SlHkn8aIZK3u-bcJXEoW-19">
          <mxGeometry relative="1" as="geometry" />
        </mxCell>
        <mxCell id="SlHkn8aIZK3u-bcJXEoW-130" value="" style="group" connectable="0" vertex="1" parent="1">
          <mxGeometry x="1036.3878406783226" y="1120" width="283.6121593216774" height="131.16025403784442" as="geometry" />
        </mxCell>
        <mxCell id="SlHkn8aIZK3u-bcJXEoW-122" value="" style="group" connectable="0" vertex="1" parent="SlHkn8aIZK3u-bcJXEoW-130">
          <mxGeometry x="143.61215932167738" width="140" height="80" as="geometry" />
        </mxCell>
        <mxCell id="SlHkn8aIZK3u-bcJXEoW-20" value="12" style="ellipse;whiteSpace=wrap;html=1;rounded=0;shadow=1;strokeColor=#666666;strokeWidth=1;fontSize=30;align=center;fillColor=#f5f5f5;" vertex="1" parent="SlHkn8aIZK3u-bcJXEoW-122">
          <mxGeometry x="60" width="80" height="80" as="geometry" />
        </mxCell>
        <mxCell id="SlHkn8aIZK3u-bcJXEoW-26" value="V = 7" style="text;html=1;strokeColor=none;fillColor=none;align=center;verticalAlign=middle;whiteSpace=wrap;rounded=0;shadow=1;labelBackgroundColor=none;fontSize=20;rotation=0;" vertex="1" parent="SlHkn8aIZK3u-bcJXEoW-130">
          <mxGeometry x="13.612159321677382" y="10" width="170" height="20" as="geometry" />
        </mxCell>
        <mxCell id="SlHkn8aIZK3u-bcJXEoW-131" value="" style="group" connectable="0" vertex="1" parent="1">
          <mxGeometry x="1087.8308732005949" y="1260.0017755578026" width="252.16912679940515" height="172.20822444219743" as="geometry" />
        </mxCell>
        <mxCell id="SlHkn8aIZK3u-bcJXEoW-123" value="" style="group" connectable="0" vertex="1" parent="SlHkn8aIZK3u-bcJXEoW-131">
          <mxGeometry x="102.16912679940515" y="32.208224442197434" width="150" height="140" as="geometry" />
        </mxCell>
        <mxCell id="SlHkn8aIZK3u-bcJXEoW-21" value="13" style="ellipse;whiteSpace=wrap;html=1;rounded=0;shadow=1;strokeColor=#666666;strokeWidth=1;fontSize=30;align=center;fillColor=#f5f5f5;" vertex="1" parent="SlHkn8aIZK3u-bcJXEoW-123">
          <mxGeometry x="50" y="60" width="80" height="80" as="geometry" />
        </mxCell>
        <mxCell id="SlHkn8aIZK3u-bcJXEoW-137" value="T1 = 22&lt;br&gt;T2 = 56" style="text;html=1;strokeColor=none;fillColor=none;align=center;verticalAlign=middle;whiteSpace=wrap;rounded=0;shadow=1;labelBackgroundColor=none;fontSize=20;" vertex="1" parent="SlHkn8aIZK3u-bcJXEoW-123">
          <mxGeometry x="40" y="-12.210000000000036" width="100" height="50" as="geometry" />
        </mxCell>
        <mxCell id="SlHkn8aIZK3u-bcJXEoW-28" value="X = 1" style="text;html=1;strokeColor=none;fillColor=none;align=center;verticalAlign=middle;whiteSpace=wrap;rounded=0;shadow=1;labelBackgroundColor=none;fontSize=20;rotation=45;" vertex="1" parent="SlHkn8aIZK3u-bcJXEoW-131">
          <mxGeometry x="12.169126799405038" y="12.208224442197405" width="110" height="20" as="geometry" />
        </mxCell>
        <mxCell id="SlHkn8aIZK3u-bcJXEoW-136" value="T1 = 28&lt;br&gt;T2 = 53" style="text;html=1;strokeColor=none;fillColor=none;align=center;verticalAlign=middle;whiteSpace=wrap;rounded=0;shadow=1;labelBackgroundColor=none;fontSize=20;" vertex="1" parent="1">
          <mxGeometry x="1230" y="1060" width="100" height="50" as="geometry" />
        </mxCell>
        <mxCell id="SlHkn8aIZK3u-bcJXEoW-139" value="" style="group" connectable="0" vertex="1" parent="1">
          <mxGeometry x="519.9966320837336" y="70" width="210.00336791626637" height="245" as="geometry" />
        </mxCell>
        <mxCell id="5CluAGCaZSxas8Q9r9-t-10" value="3" style="ellipse;whiteSpace=wrap;html=1;rounded=0;shadow=1;strokeColor=#666666;strokeWidth=1;fontSize=30;align=center;fillColor=#f5f5f5;" vertex="1" parent="SlHkn8aIZK3u-bcJXEoW-139">
          <mxGeometry x="120.00336791626637" y="65" width="80" height="80" as="geometry" />
        </mxCell>
        <mxCell id="f0bcc99304e6f5a-29" value="B = 3" style="text;html=1;strokeColor=none;fillColor=none;align=center;verticalAlign=middle;whiteSpace=wrap;rounded=0;shadow=1;labelBackgroundColor=none;fontSize=20;rotation=-70;" vertex="1" parent="SlHkn8aIZK3u-bcJXEoW-139">
          <mxGeometry x="-50" y="280" width="150" height="20" as="geometry" />
        </mxCell>
        <mxCell id="SlHkn8aIZK3u-bcJXEoW-105" value="T1 = 10&lt;br&gt;T2 = 49" style="text;html=1;strokeColor=none;fillColor=none;align=center;verticalAlign=middle;whiteSpace=wrap;rounded=0;shadow=1;labelBackgroundColor=none;fontSize=20;" vertex="1" parent="SlHkn8aIZK3u-bcJXEoW-139">
          <mxGeometry x="110.00336791626637" width="100" height="50" as="geometry" />
        </mxCell>
        <mxCell id="SlHkn8aIZK3u-bcJXEoW-146" value="" style="group" connectable="0" vertex="1" parent="1">
          <mxGeometry x="1290" y="700" width="150" height="100" as="geometry" />
        </mxCell>
        <mxCell id="SlHkn8aIZK3u-bcJXEoW-30" value="16" style="ellipse;whiteSpace=wrap;html=1;rounded=0;shadow=1;strokeColor=#666666;strokeWidth=1;fontSize=30;align=center;fillColor=#f5f5f5;" vertex="1" parent="SlHkn8aIZK3u-bcJXEoW-146">
          <mxGeometry x="70" y="20" width="80" height="80" as="geometry" />
        </mxCell>
        <mxCell id="SlHkn8aIZK3u-bcJXEoW-36" value="Y = 3" style="text;html=1;strokeColor=none;fillColor=none;align=center;verticalAlign=middle;whiteSpace=wrap;rounded=0;shadow=1;labelBackgroundColor=none;fontSize=20;rotation=45;" vertex="1" parent="1">
          <mxGeometry x="1210" y="650" width="160" height="20" as="geometry" />
        </mxCell>
        <mxCell id="SlHkn8aIZK3u-bcJXEoW-148" value="" style="group" connectable="0" vertex="1" parent="1">
          <mxGeometry x="2140" y="920" width="180" height="80" as="geometry" />
        </mxCell>
        <mxCell id="SlHkn8aIZK3u-bcJXEoW-75" value="26" style="ellipse;whiteSpace=wrap;html=1;rounded=0;shadow=1;strokeColor=#666666;strokeWidth=1;fontSize=30;align=center;fillColor=#f5f5f5;" vertex="1" parent="SlHkn8aIZK3u-bcJXEoW-148">
          <mxGeometry x="100" width="80" height="80" as="geometry" />
        </mxCell>
        <mxCell id="SlHkn8aIZK3u-bcJXEoW-149" value="" style="group" connectable="0" vertex="1" parent="1">
          <mxGeometry x="1670" y="900" width="160" height="100" as="geometry" />
        </mxCell>
        <mxCell id="SlHkn8aIZK3u-bcJXEoW-70" value="23" style="ellipse;whiteSpace=wrap;html=1;rounded=0;shadow=1;strokeColor=#666666;strokeWidth=1;fontSize=30;align=center;fillColor=#f5f5f5;" vertex="1" parent="SlHkn8aIZK3u-bcJXEoW-149">
          <mxGeometry x="80" y="20" width="80" height="80" as="geometry" />
        </mxCell>
        <mxCell id="SlHkn8aIZK3u-bcJXEoW-150" value="" style="group" connectable="0" vertex="1" parent="1">
          <mxGeometry x="1400" y="30" width="280" height="150" as="geometry" />
        </mxCell>
        <mxCell id="SlHkn8aIZK3u-bcJXEoW-39" value="18" style="ellipse;whiteSpace=wrap;html=1;rounded=0;shadow=1;strokeColor=#666666;strokeWidth=1;fontSize=30;align=center;fillColor=#f5f5f5;" vertex="1" parent="SlHkn8aIZK3u-bcJXEoW-150">
          <mxGeometry x="200" width="80" height="80" as="geometry" />
        </mxCell>
        <mxCell id="SlHkn8aIZK3u-bcJXEoW-152" value="" style="group" connectable="0" vertex="1" parent="1">
          <mxGeometry x="1920" y="110" width="170" height="155" as="geometry" />
        </mxCell>
        <mxCell id="SlHkn8aIZK3u-bcJXEoW-40" value="25" style="ellipse;whiteSpace=wrap;html=1;rounded=0;shadow=1;strokeColor=#666666;strokeWidth=1;fontSize=30;align=center;fillColor=#f5f5f5;" vertex="1" parent="SlHkn8aIZK3u-bcJXEoW-152">
          <mxGeometry x="80" y="50" width="80" height="80" as="geometry" />
        </mxCell>
        <mxCell id="SlHkn8aIZK3u-bcJXEoW-224" value="T1 = 32&lt;br&gt;T2 = 56" style="text;html=1;strokeColor=none;fillColor=none;align=center;verticalAlign=middle;whiteSpace=wrap;rounded=0;shadow=1;labelBackgroundColor=none;fontSize=20;" vertex="1" parent="SlHkn8aIZK3u-bcJXEoW-152">
          <mxGeometry x="-30" y="105" width="100" height="50" as="geometry" />
        </mxCell>
        <mxCell id="SlHkn8aIZK3u-bcJXEoW-225" value="T1 = 46&lt;br&gt;T2 = 46" style="text;html=1;strokeColor=none;fillColor=none;align=center;verticalAlign=middle;whiteSpace=wrap;rounded=0;shadow=1;labelBackgroundColor=none;fontSize=20;" vertex="1" parent="SlHkn8aIZK3u-bcJXEoW-152">
          <mxGeometry x="70" y="-10" width="100" height="50" as="geometry" />
        </mxCell>
        <mxCell id="SlHkn8aIZK3u-bcJXEoW-153" value="" style="group;dashed=1;" connectable="0" vertex="1" parent="1">
          <mxGeometry x="1940" y="440" width="220" height="80" as="geometry" />
        </mxCell>
        <mxCell id="SlHkn8aIZK3u-bcJXEoW-37" value="20" style="ellipse;whiteSpace=wrap;html=1;rounded=0;shadow=1;strokeColor=#666666;strokeWidth=1;fontSize=30;align=center;fillColor=#f5f5f5;" vertex="1" parent="SlHkn8aIZK3u-bcJXEoW-153">
          <mxGeometry x="140" width="80" height="80" as="geometry" />
        </mxCell>
        <mxCell id="SlHkn8aIZK3u-bcJXEoW-154" value="" style="group" connectable="0" vertex="1" parent="1">
          <mxGeometry x="2180" y="620" width="210" height="90" as="geometry" />
        </mxCell>
        <mxCell id="SlHkn8aIZK3u-bcJXEoW-41" value="21" style="ellipse;whiteSpace=wrap;html=1;rounded=0;shadow=1;strokeColor=#666666;strokeWidth=1;fontSize=30;align=center;fillColor=#f5f5f5;" vertex="1" parent="SlHkn8aIZK3u-bcJXEoW-154">
          <mxGeometry x="130" y="10" width="80" height="80" as="geometry" />
        </mxCell>
        <mxCell id="SlHkn8aIZK3u-bcJXEoW-97" value="BF = 0" style="text;html=1;strokeColor=none;fillColor=none;align=center;verticalAlign=middle;whiteSpace=wrap;rounded=0;shadow=1;labelBackgroundColor=none;fontSize=20;rotation=-20;" vertex="1" parent="1">
          <mxGeometry x="1650" y="-180" width="120" height="20" as="geometry" />
        </mxCell>
        <mxCell id="SlHkn8aIZK3u-bcJXEoW-100" value="&lt;div&gt;29&lt;/div&gt;" style="ellipse;whiteSpace=wrap;html=1;rounded=0;shadow=1;strokeColor=#666666;strokeWidth=4;fontSize=30;align=center;fillColor=#f5f5f5;" vertex="1" parent="1">
          <mxGeometry x="3920" y="860" width="80" height="80" as="geometry" />
        </mxCell>
        <mxCell id="SlHkn8aIZK3u-bcJXEoW-102" value="&amp;nbsp;S = 3" style="text;html=1;strokeColor=none;fillColor=none;align=center;verticalAlign=middle;whiteSpace=wrap;rounded=0;shadow=1;labelBackgroundColor=none;fontSize=20;rotation=45;" vertex="1" parent="1">
          <mxGeometry x="3100" y="90" width="120" height="20" as="geometry" />
        </mxCell>
        <mxCell id="SlHkn8aIZK3u-bcJXEoW-172" value="" style="group" connectable="0" vertex="1" parent="1">
          <mxGeometry x="2470" y="-740" width="176.5" height="165" as="geometry" />
        </mxCell>
        <mxCell id="SlHkn8aIZK3u-bcJXEoW-3" value="8" style="ellipse;whiteSpace=wrap;html=1;rounded=0;shadow=1;strokeColor=#666666;strokeWidth=1;fontSize=30;align=center;fillColor=#f5f5f5;" vertex="1" parent="SlHkn8aIZK3u-bcJXEoW-172">
          <mxGeometry x="90" y="65" width="80" height="80" as="geometry" />
        </mxCell>
        <mxCell id="SlHkn8aIZK3u-bcJXEoW-110" value="T1 = 17&lt;br&gt;T2 = 56" style="text;html=1;strokeColor=none;fillColor=none;align=center;verticalAlign=middle;whiteSpace=wrap;rounded=0;shadow=1;labelBackgroundColor=none;fontSize=20;" vertex="1" parent="SlHkn8aIZK3u-bcJXEoW-172">
          <mxGeometry x="76.5" width="100" height="50" as="geometry" />
        </mxCell>
        <mxCell id="SlHkn8aIZK3u-bcJXEoW-173" style="rounded=0;orthogonalLoop=1;jettySize=auto;html=1;exitX=1;exitY=0.5;exitDx=0;exitDy=0;entryX=0;entryY=0.5;entryDx=0;entryDy=0;dashed=1;" edge="1" parent="1" source="5CluAGCaZSxas8Q9r9-t-10" target="SlHkn8aIZK3u-bcJXEoW-93">
          <mxGeometry relative="1" as="geometry" />
        </mxCell>
        <mxCell id="SlHkn8aIZK3u-bcJXEoW-175" value="" style="group" connectable="0" vertex="1" parent="1">
          <mxGeometry x="1031.632918503291" y="1530" width="298.36708149670903" height="290.69276483995304" as="geometry" />
        </mxCell>
        <mxCell id="SlHkn8aIZK3u-bcJXEoW-19" value="14" style="ellipse;whiteSpace=wrap;html=1;rounded=0;shadow=1;strokeColor=#666666;strokeWidth=1;fontSize=30;align=center;fillColor=#f5f5f5;" vertex="1" parent="SlHkn8aIZK3u-bcJXEoW-175">
          <mxGeometry x="208.36708149670903" y="60" width="80" height="80" as="geometry" />
        </mxCell>
        <mxCell id="SlHkn8aIZK3u-bcJXEoW-135" value="T1 = 28&lt;br&gt;T2 = 56&amp;nbsp;" style="text;html=1;strokeColor=none;fillColor=none;align=center;verticalAlign=middle;whiteSpace=wrap;rounded=0;shadow=1;labelBackgroundColor=none;fontSize=20;" vertex="1" parent="SlHkn8aIZK3u-bcJXEoW-175">
          <mxGeometry x="198.36708149670903" width="100" height="50" as="geometry" />
        </mxCell>
        <mxCell id="SlHkn8aIZK3u-bcJXEoW-25" value="T = 7" style="text;html=1;strokeColor=none;fillColor=none;align=center;verticalAlign=middle;whiteSpace=wrap;rounded=0;shadow=1;labelBackgroundColor=none;fontSize=20;rotation=60;" vertex="1" parent="1">
          <mxGeometry x="1050" y="1410" width="220" height="20" as="geometry" />
        </mxCell>
        <mxCell id="SlHkn8aIZK3u-bcJXEoW-176" value="" style="group" connectable="0" vertex="1" parent="1">
          <mxGeometry x="674.9958848396136" y="1530.0040414857906" width="237.39411516038643" height="476.7659585142094" as="geometry" />
        </mxCell>
        <mxCell id="SlHkn8aIZK3u-bcJXEoW-114" value="" style="group" connectable="0" vertex="1" parent="SlHkn8aIZK3u-bcJXEoW-176">
          <mxGeometry x="47.394115160386434" y="276.7659585142094" width="190" height="200" as="geometry" />
        </mxCell>
        <mxCell id="zdQ3T39eUNu5po6wPQad-49" value="6" style="ellipse;whiteSpace=wrap;html=1;rounded=0;shadow=1;strokeColor=#666666;strokeWidth=1;fontSize=30;align=center;fillColor=#f5f5f5;" vertex="1" parent="SlHkn8aIZK3u-bcJXEoW-114">
          <mxGeometry x="100" y="120" width="80" height="80" as="geometry" />
        </mxCell>
        <mxCell id="SlHkn8aIZK3u-bcJXEoW-108" value="T1 = 14&lt;br&gt;T2 = 56" style="text;html=1;strokeColor=none;fillColor=none;align=center;verticalAlign=middle;whiteSpace=wrap;rounded=0;shadow=1;labelBackgroundColor=none;fontSize=20;" vertex="1" parent="SlHkn8aIZK3u-bcJXEoW-114">
          <mxGeometry x="90" y="60" width="100" height="50" as="geometry" />
        </mxCell>
        <mxCell id="SlHkn8aIZK3u-bcJXEoW-177" style="rounded=0;orthogonalLoop=1;jettySize=auto;html=1;exitX=1;exitY=0.5;exitDx=0;exitDy=0;entryX=0;entryY=0.5;entryDx=0;entryDy=0;dashed=1;" edge="1" parent="1" source="zdQ3T39eUNu5po6wPQad-49" target="SlHkn8aIZK3u-bcJXEoW-100">
          <mxGeometry relative="1" as="geometry" />
        </mxCell>
        <mxCell id="SlHkn8aIZK3u-bcJXEoW-178" style="rounded=0;orthogonalLoop=1;jettySize=auto;html=1;exitX=1;exitY=0.5;exitDx=0;exitDy=0;entryX=0;entryY=0.5;entryDx=0;entryDy=0;dashed=1;" edge="1" parent="1" source="SlHkn8aIZK3u-bcJXEoW-19" target="SlHkn8aIZK3u-bcJXEoW-100">
          <mxGeometry relative="1" as="geometry" />
        </mxCell>
        <mxCell id="SlHkn8aIZK3u-bcJXEoW-179" style="rounded=0;orthogonalLoop=1;jettySize=auto;html=1;exitX=1;exitY=0.5;exitDx=0;exitDy=0;entryX=0;entryY=0.5;entryDx=0;entryDy=0;dashed=1;" edge="1" parent="1" source="SlHkn8aIZK3u-bcJXEoW-21" target="SlHkn8aIZK3u-bcJXEoW-100">
          <mxGeometry relative="1" as="geometry" />
        </mxCell>
        <mxCell id="SlHkn8aIZK3u-bcJXEoW-180" style="rounded=0;orthogonalLoop=1;jettySize=auto;html=1;exitX=1;exitY=0.5;exitDx=0;exitDy=0;entryX=0;entryY=0.5;entryDx=0;entryDy=0;dashed=1;" edge="1" parent="1" source="SlHkn8aIZK3u-bcJXEoW-66" target="SlHkn8aIZK3u-bcJXEoW-100">
          <mxGeometry relative="1" as="geometry" />
        </mxCell>
        <mxCell id="SlHkn8aIZK3u-bcJXEoW-181" style="rounded=0;orthogonalLoop=1;jettySize=auto;html=1;exitX=1;exitY=0.5;exitDx=0;exitDy=0;entryX=0;entryY=0.5;entryDx=0;entryDy=0;dashed=1;" edge="1" parent="1" source="SlHkn8aIZK3u-bcJXEoW-75" target="SlHkn8aIZK3u-bcJXEoW-100">
          <mxGeometry relative="1" as="geometry" />
        </mxCell>
        <mxCell id="SlHkn8aIZK3u-bcJXEoW-183" style="rounded=0;orthogonalLoop=1;jettySize=auto;html=1;exitX=1;exitY=0.5;exitDx=0;exitDy=0;entryX=0;entryY=0.5;entryDx=0;entryDy=0;dashed=1;" edge="1" parent="1" source="SlHkn8aIZK3u-bcJXEoW-41" target="SlHkn8aIZK3u-bcJXEoW-100">
          <mxGeometry relative="1" as="geometry" />
        </mxCell>
        <mxCell id="SlHkn8aIZK3u-bcJXEoW-189" value="" style="group" connectable="0" vertex="1" parent="1">
          <mxGeometry x="2400" y="-980" width="230" height="160" as="geometry" />
        </mxCell>
        <mxCell id="zdQ3T39eUNu5po6wPQad-53" value="7" style="ellipse;whiteSpace=wrap;html=1;rounded=0;shadow=1;strokeColor=#666666;strokeWidth=1;fontSize=30;align=center;fillColor=#f5f5f5;" vertex="1" parent="SlHkn8aIZK3u-bcJXEoW-189">
          <mxGeometry x="110.91999999999996" y="80" width="80" height="80" as="geometry" />
        </mxCell>
        <mxCell id="SlHkn8aIZK3u-bcJXEoW-109" value="T1 = 13&lt;div&gt;T2 = 56&lt;/div&gt;" style="text;html=1;strokeColor=none;fillColor=none;align=center;verticalAlign=middle;whiteSpace=wrap;rounded=0;shadow=1;labelBackgroundColor=none;fontSize=20;" vertex="1" parent="SlHkn8aIZK3u-bcJXEoW-189">
          <mxGeometry x="97.42" width="132.58" height="50" as="geometry" />
        </mxCell>
        <mxCell id="SlHkn8aIZK3u-bcJXEoW-190" style="rounded=0;orthogonalLoop=1;jettySize=auto;html=1;exitX=1;exitY=0.5;exitDx=0;exitDy=0;entryX=0;entryY=0.5;entryDx=0;entryDy=0;dashed=1;" edge="1" parent="1" source="SlHkn8aIZK3u-bcJXEoW-3" target="SlHkn8aIZK3u-bcJXEoW-100">
          <mxGeometry relative="1" as="geometry" />
        </mxCell>
        <mxCell id="SlHkn8aIZK3u-bcJXEoW-191" style="rounded=0;orthogonalLoop=1;jettySize=auto;html=1;exitX=1;exitY=0.5;exitDx=0;exitDy=0;entryX=0;entryY=0.5;entryDx=0;entryDy=0;dashed=1;" edge="1" parent="1" source="zdQ3T39eUNu5po6wPQad-53" target="SlHkn8aIZK3u-bcJXEoW-100">
          <mxGeometry relative="1" as="geometry" />
        </mxCell>
        <mxCell id="SlHkn8aIZK3u-bcJXEoW-77" value="AB = 7" style="text;html=1;strokeColor=none;fillColor=none;align=center;verticalAlign=middle;whiteSpace=wrap;rounded=0;shadow=1;labelBackgroundColor=none;fontSize=20;" vertex="1" parent="1">
          <mxGeometry x="1900" y="930" width="140" height="20" as="geometry" />
        </mxCell>
        <mxCell id="SlHkn8aIZK3u-bcJXEoW-29" value="15" style="ellipse;whiteSpace=wrap;html=1;rounded=0;shadow=1;strokeColor=#666666;strokeWidth=1;fontSize=30;align=center;fillColor=#f5f5f5;" vertex="1" parent="1">
          <mxGeometry x="1360" y="360" width="80" height="80" as="geometry" />
        </mxCell>
        <mxCell id="SlHkn8aIZK3u-bcJXEoW-35" value="L = 10" style="text;html=1;strokeColor=none;fillColor=none;align=center;verticalAlign=middle;whiteSpace=wrap;rounded=0;shadow=1;labelBackgroundColor=none;fontSize=20;rotation=-50;" vertex="1" parent="1">
          <mxGeometry x="1205.71" y="464.36" width="120" height="20" as="geometry" />
        </mxCell>
        <mxCell id="SlHkn8aIZK3u-bcJXEoW-74" value="AA = 3" style="text;html=1;strokeColor=none;fillColor=none;align=center;verticalAlign=middle;whiteSpace=wrap;rounded=0;shadow=1;labelBackgroundColor=none;fontSize=20;rotation=30;" vertex="1" parent="1">
          <mxGeometry x="1530" y="820" width="120" height="20" as="geometry" />
        </mxCell>
        <mxCell id="SlHkn8aIZK3u-bcJXEoW-50" value="N = 3" style="text;html=1;strokeColor=none;fillColor=none;align=center;verticalAlign=middle;whiteSpace=wrap;rounded=0;shadow=1;labelBackgroundColor=none;fontSize=20;rotation=10;" vertex="1" parent="1">
          <mxGeometry x="1633.5" y="400" width="120" height="20" as="geometry" />
        </mxCell>
        <mxCell id="SlHkn8aIZK3u-bcJXEoW-51" value="O = 3" style="text;html=1;strokeColor=none;fillColor=none;align=center;verticalAlign=middle;whiteSpace=wrap;rounded=0;shadow=1;labelBackgroundColor=none;fontSize=20;rotation=15;" vertex="1" parent="1">
          <mxGeometry x="1820" y="510" width="150" height="20" as="geometry" />
        </mxCell>
        <mxCell id="SlHkn8aIZK3u-bcJXEoW-47" value="K = 7" style="text;html=1;strokeColor=none;fillColor=none;align=center;verticalAlign=middle;whiteSpace=wrap;rounded=0;shadow=1;labelBackgroundColor=none;fontSize=20;rotation=-65;" vertex="1" parent="1">
          <mxGeometry x="1400" y="240" width="160" height="20" as="geometry" />
        </mxCell>
        <mxCell id="SlHkn8aIZK3u-bcJXEoW-54" value="P = 10" style="text;html=1;strokeColor=none;fillColor=none;align=center;verticalAlign=middle;whiteSpace=wrap;rounded=0;shadow=1;labelBackgroundColor=none;fontSize=20;rotation=25;" vertex="1" parent="1">
          <mxGeometry x="1713.5" y="90" width="160" height="20" as="geometry" />
        </mxCell>
        <mxCell id="SlHkn8aIZK3u-bcJXEoW-57" value="R = 7" style="text;html=1;strokeColor=none;fillColor=none;align=center;verticalAlign=middle;whiteSpace=wrap;rounded=0;shadow=1;labelBackgroundColor=none;fontSize=20;rotation=-20;" vertex="1" parent="1">
          <mxGeometry x="1810" y="-60" width="140" height="20" as="geometry" />
        </mxCell>
        <mxCell id="SlHkn8aIZK3u-bcJXEoW-9" value="G = 7" style="text;html=1;strokeColor=none;fillColor=none;align=center;verticalAlign=middle;whiteSpace=wrap;rounded=0;shadow=1;labelBackgroundColor=none;fontSize=20;rotation=-30;" vertex="1" parent="1">
          <mxGeometry x="1640" y="-300" width="140" height="20" as="geometry" />
        </mxCell>
        <mxCell id="SlHkn8aIZK3u-bcJXEoW-8" value="F = 3" style="text;html=1;strokeColor=none;fillColor=none;align=center;verticalAlign=middle;whiteSpace=wrap;rounded=0;shadow=1;labelBackgroundColor=none;fontSize=20;rotation=-30;" vertex="1" parent="1">
          <mxGeometry x="1510" y="-420" width="330.92" height="20" as="geometry" />
        </mxCell>
        <mxCell id="SlHkn8aIZK3u-bcJXEoW-197" value="HB = 0" style="text;html=1;strokeColor=none;fillColor=none;align=center;verticalAlign=middle;whiteSpace=wrap;rounded=0;shadow=1;labelBackgroundColor=none;fontSize=20;rotation=-20;" vertex="1" parent="1">
          <mxGeometry x="1820.0002540378443" y="1580.0027944162882" width="220" height="20" as="geometry" />
        </mxCell>
        <mxCell id="SlHkn8aIZK3u-bcJXEoW-198" value="TB = 0" style="text;html=1;strokeColor=none;fillColor=none;align=center;verticalAlign=middle;whiteSpace=wrap;rounded=0;shadow=1;labelBackgroundColor=none;fontSize=20;rotation=-15;" vertex="1" parent="1">
          <mxGeometry x="1939.9963897197067" y="1389.9991419736828" width="220" height="20" as="geometry" />
        </mxCell>
        <mxCell id="SlHkn8aIZK3u-bcJXEoW-199" value="WB = 0" style="text;html=1;strokeColor=none;fillColor=none;align=center;verticalAlign=middle;whiteSpace=wrap;rounded=0;shadow=1;labelBackgroundColor=none;fontSize=20;rotation=-5;" vertex="1" parent="1">
          <mxGeometry x="1999.9963897197067" y="1064.9991419736828" width="220" height="20" as="geometry" />
        </mxCell>
        <mxCell id="SlHkn8aIZK3u-bcJXEoW-201" value="HB = 0" style="text;html=1;strokeColor=none;fillColor=none;align=center;verticalAlign=middle;whiteSpace=wrap;rounded=0;shadow=1;labelBackgroundColor=none;fontSize=20;rotation=-15;" vertex="1" parent="1">
          <mxGeometry x="2019.9963897197067" y="1199.9991419736828" width="220" height="20" as="geometry" />
        </mxCell>
        <mxCell id="SlHkn8aIZK3u-bcJXEoW-202" value="ABB = 0" style="text;html=1;strokeColor=none;fillColor=none;align=center;verticalAlign=middle;whiteSpace=wrap;rounded=0;shadow=1;labelBackgroundColor=none;fontSize=20;rotation=0;" vertex="1" parent="1">
          <mxGeometry x="2616.7863897197067" y="917.0191419736827" width="220" height="20" as="geometry" />
        </mxCell>
        <mxCell id="SlHkn8aIZK3u-bcJXEoW-203" value="ZB = 0" style="text;html=1;strokeColor=none;fillColor=none;align=center;verticalAlign=middle;whiteSpace=wrap;rounded=0;shadow=1;labelBackgroundColor=none;fontSize=20;rotation=0;" vertex="1" parent="1">
          <mxGeometry x="2597.416389719707" y="789.9991419736828" width="220" height="20" as="geometry" />
        </mxCell>
        <mxCell id="SlHkn8aIZK3u-bcJXEoW-206" value="OB = 0" style="text;html=1;strokeColor=none;fillColor=none;align=center;verticalAlign=middle;whiteSpace=wrap;rounded=0;shadow=1;labelBackgroundColor=none;fontSize=20;rotation=15;" vertex="1" parent="1">
          <mxGeometry x="2646.7863897197067" y="697.0191419736827" width="220" height="20" as="geometry" />
        </mxCell>
        <mxCell id="SlHkn8aIZK3u-bcJXEoW-207" value="NB = 0" style="text;html=1;strokeColor=none;fillColor=none;align=center;verticalAlign=middle;whiteSpace=wrap;rounded=0;shadow=1;labelBackgroundColor=none;fontSize=20;rotation=15;" vertex="1" parent="1">
          <mxGeometry x="2446.7863897197067" y="547.0191419736827" width="220" height="20" as="geometry" />
        </mxCell>
        <mxCell id="SlHkn8aIZK3u-bcJXEoW-208" value="MB = 0" style="text;html=1;strokeColor=none;fillColor=none;align=center;verticalAlign=middle;whiteSpace=wrap;rounded=0;shadow=1;labelBackgroundColor=none;fontSize=20;rotation=15;" vertex="1" parent="1">
          <mxGeometry x="2539.9963897197067" y="484.3591419736827" width="220" height="20" as="geometry" />
        </mxCell>
        <mxCell id="SlHkn8aIZK3u-bcJXEoW-209" value="UB = 0" style="text;html=1;strokeColor=none;fillColor=none;align=center;verticalAlign=middle;whiteSpace=wrap;rounded=0;shadow=1;labelBackgroundColor=none;fontSize=20;rotation=25;" vertex="1" parent="1">
          <mxGeometry x="2849.9963897197067" y="394.99914197368275" width="220" height="20" as="geometry" />
        </mxCell>
        <mxCell id="SlHkn8aIZK3u-bcJXEoW-211" value="RB = 0" style="text;html=1;strokeColor=none;fillColor=none;align=center;verticalAlign=middle;whiteSpace=wrap;rounded=0;shadow=1;labelBackgroundColor=none;fontSize=20;rotation=-35;" vertex="1" parent="1">
          <mxGeometry x="2183.27" y="-259.99999999999994" width="206.73" height="20" as="geometry" />
        </mxCell>
        <mxCell id="SlHkn8aIZK3u-bcJXEoW-212" value="GB = 0" style="text;html=1;strokeColor=none;fillColor=none;align=center;verticalAlign=middle;whiteSpace=wrap;rounded=0;shadow=1;labelBackgroundColor=none;fontSize=20;rotation=50;" vertex="1" parent="1">
          <mxGeometry x="3119.9963897197067" y="29.999141973682732" width="220" height="20" as="geometry" />
        </mxCell>
        <mxCell id="SlHkn8aIZK3u-bcJXEoW-213" value="FB = 0" style="text;html=1;strokeColor=none;fillColor=none;align=center;verticalAlign=middle;whiteSpace=wrap;rounded=0;shadow=1;labelBackgroundColor=none;fontSize=20;rotation=55;" vertex="1" parent="1">
          <mxGeometry x="3159.9963897197067" y="-10.00085802631726" width="220" height="20" as="geometry" />
        </mxCell>
        <mxCell id="SlHkn8aIZK3u-bcJXEoW-219" value="T1 = 53&lt;br&gt;T2 = 53" style="text;html=1;strokeColor=none;fillColor=none;align=center;verticalAlign=middle;whiteSpace=wrap;rounded=0;shadow=1;labelBackgroundColor=none;fontSize=20;" vertex="1" parent="1">
          <mxGeometry x="2540.5" y="-510" width="100" height="50" as="geometry" />
        </mxCell>
        <mxCell id="SlHkn8aIZK3u-bcJXEoW-220" value="T1 = 29&lt;br&gt;T2 = 29" style="text;html=1;strokeColor=none;fillColor=none;align=center;verticalAlign=middle;whiteSpace=wrap;rounded=0;shadow=1;labelBackgroundColor=none;fontSize=20;" vertex="1" parent="1">
          <mxGeometry x="1350" y="295" width="100" height="50" as="geometry" />
        </mxCell>
        <mxCell id="SlHkn8aIZK3u-bcJXEoW-221" value="T1 = 31&lt;br&gt;T2 = 56" style="text;html=1;strokeColor=none;fillColor=none;align=center;verticalAlign=middle;whiteSpace=wrap;rounded=0;shadow=1;labelBackgroundColor=none;fontSize=20;" vertex="1" parent="1">
          <mxGeometry x="1550" y="1060" width="100" height="50" as="geometry" />
        </mxCell>
        <mxCell id="SlHkn8aIZK3u-bcJXEoW-222" value="T1 = 22&lt;br&gt;T2 = 46" style="text;html=1;strokeColor=none;fillColor=none;align=center;verticalAlign=middle;whiteSpace=wrap;rounded=0;shadow=1;labelBackgroundColor=none;fontSize=20;" vertex="1" parent="1">
          <mxGeometry x="1350" y="655" width="100" height="50" as="geometry" />
        </mxCell>
        <mxCell id="SlHkn8aIZK3u-bcJXEoW-223" value="T1 = 36&lt;br&gt;T2 = 36" style="text;html=1;strokeColor=none;fillColor=none;align=center;verticalAlign=middle;whiteSpace=wrap;rounded=0;shadow=1;labelBackgroundColor=none;fontSize=20;" vertex="1" parent="1">
          <mxGeometry x="1590" y="-30" width="100" height="50" as="geometry" />
        </mxCell>
        <mxCell id="SlHkn8aIZK3u-bcJXEoW-226" value="T1 = 32&lt;br&gt;T2 = 56" style="text;html=1;strokeColor=none;fillColor=none;align=center;verticalAlign=middle;whiteSpace=wrap;rounded=0;shadow=1;labelBackgroundColor=none;fontSize=20;" vertex="1" parent="1">
          <mxGeometry x="2070" y="380" width="100" height="50" as="geometry" />
        </mxCell>
        <mxCell id="SlHkn8aIZK3u-bcJXEoW-227" value="T1 = 29&lt;br&gt;T2 = 56" style="text;html=1;strokeColor=none;fillColor=none;align=center;verticalAlign=middle;whiteSpace=wrap;rounded=0;shadow=1;labelBackgroundColor=none;fontSize=20;" vertex="1" parent="1">
          <mxGeometry x="1740.92" y="660" width="100" height="50" as="geometry" />
        </mxCell>
        <mxCell id="SlHkn8aIZK3u-bcJXEoW-228" value="T1 = 25&lt;br&gt;T2 = 49" style="text;html=1;strokeColor=none;fillColor=none;align=center;verticalAlign=middle;whiteSpace=wrap;rounded=0;shadow=1;labelBackgroundColor=none;fontSize=20;" vertex="1" parent="1">
          <mxGeometry x="1740.92" y="860" width="100" height="50" as="geometry" />
        </mxCell>
        <mxCell id="SlHkn8aIZK3u-bcJXEoW-229" value="T1 = 32&lt;br&gt;T2 = 56&amp;nbsp;" style="text;html=1;strokeColor=none;fillColor=none;align=center;verticalAlign=middle;whiteSpace=wrap;rounded=0;shadow=1;labelBackgroundColor=none;fontSize=20;" vertex="1" parent="1">
          <mxGeometry x="2230" y="860" width="100" height="50" as="geometry" />
        </mxCell>
        <mxCell id="SlHkn8aIZK3u-bcJXEoW-230" value="T1 = 32&lt;br&gt;T2 = 56" style="text;html=1;strokeColor=none;fillColor=none;align=center;verticalAlign=middle;whiteSpace=wrap;rounded=0;shadow=1;labelBackgroundColor=none;fontSize=20;" vertex="1" parent="1">
          <mxGeometry x="2300" y="575" width="100" height="50" as="geometry" />
        </mxCell>
        <mxCell id="SlHkn8aIZK3u-bcJXEoW-235" value="" style="group" connectable="0" vertex="1" parent="1">
          <mxGeometry x="2370" y="100" width="100" height="140" as="geometry" />
        </mxCell>
        <mxCell id="SlHkn8aIZK3u-bcJXEoW-60" value="27" style="ellipse;whiteSpace=wrap;html=1;rounded=0;shadow=1;strokeColor=#666666;strokeWidth=1;fontSize=30;align=center;fillColor=#f5f5f5;" vertex="1" parent="SlHkn8aIZK3u-bcJXEoW-235">
          <mxGeometry x="10" y="60" width="80" height="80" as="geometry" />
        </mxCell>
        <mxCell id="SlHkn8aIZK3u-bcJXEoW-233" value="T1 = 53&lt;br&gt;T2 = 56" style="text;html=1;strokeColor=none;fillColor=none;align=center;verticalAlign=middle;whiteSpace=wrap;rounded=0;shadow=1;labelBackgroundColor=none;fontSize=20;" vertex="1" parent="SlHkn8aIZK3u-bcJXEoW-235">
          <mxGeometry width="100" height="50" as="geometry" />
        </mxCell>
        <mxCell id="SlHkn8aIZK3u-bcJXEoW-238" value="T1 = 56&lt;br&gt;T2 = 56&amp;nbsp;" style="text;html=1;strokeColor=none;fillColor=none;align=center;verticalAlign=middle;whiteSpace=wrap;rounded=0;shadow=1;labelBackgroundColor=none;fontSize=20;" vertex="1" parent="1">
          <mxGeometry x="3910" y="790" width="120" height="50" as="geometry" />
        </mxCell>
        <mxCell id="SlHkn8aIZK3u-bcJXEoW-184" style="rounded=0;orthogonalLoop=1;jettySize=auto;html=1;exitX=1;exitY=0.5;exitDx=0;exitDy=0;dashed=1;entryX=-0.022;entryY=0.512;entryDx=0;entryDy=0;entryPerimeter=0;" edge="1" parent="1" source="SlHkn8aIZK3u-bcJXEoW-37" target="SlHkn8aIZK3u-bcJXEoW-100">
          <mxGeometry relative="1" as="geometry">
            <mxPoint x="3910" y="890" as="targetPoint" />
          </mxGeometry>
        </mxCell>
        <mxCell id="zdQ3T39eUNu5po6wPQad-51" value="H = 7" style="text;html=1;strokeColor=none;fillColor=none;align=center;verticalAlign=middle;whiteSpace=wrap;rounded=0;shadow=1;labelBackgroundColor=none;fontSize=20;rotation=75;" vertex="1" parent="1">
          <mxGeometry x="600" y="1470" width="195" height="20" as="geometry" />
        </mxCell>
        <mxCell id="SlHkn8aIZK3u-bcJXEoW-239" value="T1 = 0&lt;br&gt;T2 = 0" style="text;html=1;strokeColor=none;fillColor=none;align=center;verticalAlign=middle;whiteSpace=wrap;rounded=0;shadow=1;labelBackgroundColor=none;fontSize=20;" vertex="1" parent="1">
          <mxGeometry x="110" y="590" width="100" height="50" as="geometry" />
        </mxCell>
        <mxCell id="xVkPy0cRoP6QBlZTPq00-2" value="" style="group" connectable="0" vertex="1" parent="1">
          <mxGeometry x="1870" y="-180" width="220" height="140" as="geometry" />
        </mxCell>
        <mxCell id="SlHkn8aIZK3u-bcJXEoW-193" value="" style="group" connectable="0" vertex="1" parent="xVkPy0cRoP6QBlZTPq00-2">
          <mxGeometry y="60" width="210" height="80" as="geometry" />
        </mxCell>
        <mxCell id="SlHkn8aIZK3u-bcJXEoW-55" value="24" style="ellipse;whiteSpace=wrap;html=1;rounded=0;shadow=1;strokeColor=#666666;strokeWidth=1;fontSize=30;align=center;fillColor=#f5f5f5;" vertex="1" parent="SlHkn8aIZK3u-bcJXEoW-193">
          <mxGeometry x="130" width="80" height="80" as="geometry" />
        </mxCell>
        <mxCell id="SlHkn8aIZK3u-bcJXEoW-231" value="T1 = 43&lt;br&gt;T2 = 53" style="text;html=1;strokeColor=none;fillColor=none;align=center;verticalAlign=middle;whiteSpace=wrap;rounded=0;shadow=1;labelBackgroundColor=none;fontSize=20;" vertex="1" parent="xVkPy0cRoP6QBlZTPq00-2">
          <mxGeometry x="120" width="100" height="50" as="geometry" />
        </mxCell>
        <UserObject label="&lt;table xmlns=&quot;http://www.w3.org/1999/xhtml&quot; cellspacing=&quot;0&quot; cellpadding=&quot;0&quot; dir=&quot;ltr&quot; border=&quot;1&quot; style=&quot;table-layout:fixed;font-size:10pt;font-family:Arial;width:0px;border-collapse:collapse;border:none&quot; data-sheets-root=&quot;1&quot; data-sheets-baot=&quot;1&quot;&gt;&lt;colgroup&gt;&lt;col width=&quot;39&quot;&gt;&lt;col width=&quot;23&quot;&gt;&lt;col width=&quot;23&quot;&gt;&lt;col width=&quot;54&quot;&gt;&lt;/colgroup&gt;&lt;tbody&gt;&lt;tr style=&quot;height:21px;&quot;&gt;&lt;td style=&quot;border-top:1px solid #000000;border-right:1px solid #000000;border-bottom:1px solid #000000;border-left:1px solid #000000;overflow:hidden;padding:2px 3px 2px 3px;vertical-align:bottom;text-align:center;&quot;&gt;Nodo&lt;/td&gt;&lt;td style=&quot;border-top:1px solid #000000;border-right:1px solid #000000;border-bottom:1px solid #000000;overflow:hidden;padding:2px 3px 2px 3px;vertical-align:bottom;text-align:center;&quot;&gt;T1&lt;/td&gt;&lt;td style=&quot;border-top:1px solid #000000;border-right:1px solid #000000;border-bottom:1px solid #000000;overflow:hidden;padding:2px 3px 2px 3px;vertical-align:bottom;text-align:center;&quot;&gt;T2&lt;/td&gt;&lt;td style=&quot;border-top:1px solid #000000;border-right:1px solid #000000;border-bottom:1px solid #000000;overflow:hidden;padding:2px 3px 2px 3px;vertical-align:bottom;text-align:center;&quot;&gt;Holgura&lt;/td&gt;&lt;/tr&gt;&lt;tr style=&quot;height:21px;&quot;&gt;&lt;td style=&quot;border-right:1px solid #000000;border-bottom:1px solid #000000;border-left:1px solid #000000;overflow:hidden;padding:2px 3px 2px 3px;vertical-align:bottom;background-color:#f4cccc;text-align:center;&quot;&gt;1&lt;/td&gt;&lt;td style=&quot;border-right:1px solid #000000;border-bottom:1px solid #000000;overflow:hidden;padding:2px 3px 2px 3px;vertical-align:bottom;background-color:#f4cccc;text-align:center;&quot;&gt;0&lt;/td&gt;&lt;td style=&quot;border-right:1px solid #000000;border-bottom:1px solid #000000;overflow:hidden;padding:2px 3px 2px 3px;vertical-align:bottom;background-color:#f4cccc;text-align:center;&quot;&gt;0&lt;/td&gt;&lt;td style=&quot;border-right:1px solid #000000;border-bottom:1px solid #000000;overflow:hidden;padding:2px 3px 2px 3px;vertical-align:bottom;background-color:#f4cccc;text-align:center;&quot;&gt;0&lt;/td&gt;&lt;/tr&gt;&lt;tr style=&quot;height:21px;&quot;&gt;&lt;td style=&quot;border-right:1px solid #000000;border-bottom:1px solid #000000;border-left:1px solid #000000;overflow:hidden;padding:2px 3px 2px 3px;vertical-align:bottom;background-color:#f4cccc;text-align:center;&quot;&gt;2&lt;/td&gt;&lt;td style=&quot;border-right:1px solid #000000;border-bottom:1px solid #000000;overflow:hidden;padding:2px 3px 2px 3px;vertical-align:bottom;background-color:#f4cccc;text-align:center;&quot;&gt;7&lt;/td&gt;&lt;td style=&quot;border-right:1px solid #000000;border-bottom:1px solid #000000;overflow:hidden;padding:2px 3px 2px 3px;vertical-align:bottom;background-color:#f4cccc;text-align:center;&quot;&gt;7&lt;/td&gt;&lt;td style=&quot;border-right:1px solid #000000;border-bottom:1px solid #000000;overflow:hidden;padding:2px 3px 2px 3px;vertical-align:bottom;background-color:#f4cccc;text-align:center;&quot;&gt;0&lt;/td&gt;&lt;/tr&gt;&lt;tr style=&quot;height:21px;&quot;&gt;&lt;td style=&quot;border-right:1px solid #000000;border-bottom:1px solid #000000;border-left:1px solid #000000;overflow:hidden;padding:2px 3px 2px 3px;vertical-align:bottom;text-align:center;&quot;&gt;3&lt;/td&gt;&lt;td style=&quot;border-right:1px solid #000000;border-bottom:1px solid #000000;overflow:hidden;padding:2px 3px 2px 3px;vertical-align:bottom;text-align:center;&quot;&gt;10&lt;/td&gt;&lt;td style=&quot;border-right:1px solid #000000;border-bottom:1px solid #000000;overflow:hidden;padding:2px 3px 2px 3px;vertical-align:bottom;text-align:center;&quot;&gt;49&lt;/td&gt;&lt;td style=&quot;border-right:1px solid #000000;border-bottom:1px solid #000000;overflow:hidden;padding:2px 3px 2px 3px;vertical-align:bottom;text-align:center;&quot;&gt;39&lt;/td&gt;&lt;/tr&gt;&lt;tr style=&quot;height:21px;&quot;&gt;&lt;td style=&quot;border-right:1px solid #000000;border-bottom:1px solid #000000;border-left:1px solid #000000;overflow:hidden;padding:2px 3px 2px 3px;vertical-align:bottom;background-color:#f4cccc;text-align:center;&quot;&gt;4&lt;/td&gt;&lt;td style=&quot;border-right:1px solid #000000;border-bottom:1px solid #000000;overflow:hidden;padding:2px 3px 2px 3px;vertical-align:bottom;background-color:#f4cccc;text-align:center;&quot;&gt;9&lt;/td&gt;&lt;td style=&quot;border-right:1px solid #000000;border-bottom:1px solid #000000;overflow:hidden;padding:2px 3px 2px 3px;vertical-align:bottom;background-color:#f4cccc;text-align:center;&quot;&gt;9&lt;/td&gt;&lt;td style=&quot;border-right:1px solid #000000;border-bottom:1px solid #000000;overflow:hidden;padding:2px 3px 2px 3px;vertical-align:bottom;background-color:#f4cccc;text-align:center;&quot;&gt;0&lt;/td&gt;&lt;/tr&gt;&lt;tr style=&quot;height:21px;&quot;&gt;&lt;td style=&quot;border-right:1px solid #000000;border-bottom:1px solid #000000;border-left:1px solid #000000;overflow:hidden;padding:2px 3px 2px 3px;vertical-align:bottom;text-align:center;&quot;&gt;5&lt;/td&gt;&lt;td style=&quot;border-right:1px solid #000000;border-bottom:1px solid #000000;overflow:hidden;padding:2px 3px 2px 3px;vertical-align:bottom;text-align:center;&quot;&gt;14&lt;/td&gt;&lt;td style=&quot;border-right:1px solid #000000;border-bottom:1px solid #000000;overflow:hidden;padding:2px 3px 2px 3px;vertical-align:bottom;text-align:center;&quot;&gt;39&lt;/td&gt;&lt;td style=&quot;border-right:1px solid #000000;border-bottom:1px solid #000000;overflow:hidden;padding:2px 3px 2px 3px;vertical-align:bottom;text-align:center;&quot;&gt;25&lt;/td&gt;&lt;/tr&gt;&lt;tr style=&quot;height:21px;&quot;&gt;&lt;td style=&quot;border-right:1px solid #000000;border-bottom:1px solid #000000;border-left:1px solid #000000;overflow:hidden;padding:2px 3px 2px 3px;vertical-align:bottom;text-align:center;&quot;&gt;6&lt;/td&gt;&lt;td style=&quot;border-right:1px solid #000000;border-bottom:1px solid #000000;overflow:hidden;padding:2px 3px 2px 3px;vertical-align:bottom;text-align:center;&quot;&gt;14&lt;/td&gt;&lt;td style=&quot;border-right:1px solid #000000;border-bottom:1px solid #000000;overflow:hidden;padding:2px 3px 2px 3px;vertical-align:bottom;text-align:center;&quot;&gt;56&lt;/td&gt;&lt;td style=&quot;border-right:1px solid #000000;border-bottom:1px solid #000000;overflow:hidden;padding:2px 3px 2px 3px;vertical-align:bottom;text-align:center;&quot;&gt;42&lt;/td&gt;&lt;/tr&gt;&lt;tr style=&quot;height:21px;&quot;&gt;&lt;td style=&quot;border-right:1px solid #000000;border-bottom:1px solid #000000;border-left:1px solid #000000;overflow:hidden;padding:2px 3px 2px 3px;vertical-align:bottom;text-align:center;&quot;&gt;7&lt;/td&gt;&lt;td style=&quot;border-right:1px solid #000000;border-bottom:1px solid #000000;overflow:hidden;padding:2px 3px 2px 3px;vertical-align:bottom;text-align:center;&quot;&gt;13&lt;/td&gt;&lt;td style=&quot;border-right:1px solid #000000;border-bottom:1px solid #000000;overflow:hidden;padding:2px 3px 2px 3px;vertical-align:bottom;text-align:center;&quot;&gt;56&lt;/td&gt;&lt;td style=&quot;border-right:1px solid #000000;border-bottom:1px solid #000000;overflow:hidden;padding:2px 3px 2px 3px;vertical-align:bottom;text-align:center;&quot;&gt;43&lt;/td&gt;&lt;/tr&gt;&lt;tr style=&quot;height:21px;&quot;&gt;&lt;td style=&quot;border-right:1px solid #000000;border-bottom:1px solid #000000;border-left:1px solid #000000;overflow:hidden;padding:2px 3px 2px 3px;vertical-align:bottom;text-align:center;&quot;&gt;8&lt;/td&gt;&lt;td style=&quot;border-right:1px solid #000000;border-bottom:1px solid #000000;overflow:hidden;padding:2px 3px 2px 3px;vertical-align:bottom;text-align:center;&quot;&gt;17&lt;/td&gt;&lt;td style=&quot;border-right:1px solid #000000;border-bottom:1px solid #000000;overflow:hidden;padding:2px 3px 2px 3px;vertical-align:bottom;text-align:center;&quot;&gt;56&lt;/td&gt;&lt;td style=&quot;border-right:1px solid #000000;border-bottom:1px solid #000000;overflow:hidden;padding:2px 3px 2px 3px;vertical-align:bottom;text-align:center;&quot;&gt;39&lt;/td&gt;&lt;/tr&gt;&lt;tr style=&quot;height:21px;&quot;&gt;&lt;td style=&quot;border-right:1px solid #000000;border-bottom:1px solid #000000;border-left:1px solid #000000;overflow:hidden;padding:2px 3px 2px 3px;vertical-align:bottom;background-color:#f4cccc;text-align:center;&quot;&gt;9&lt;/td&gt;&lt;td style=&quot;border-right:1px solid #000000;border-bottom:1px solid #000000;overflow:hidden;padding:2px 3px 2px 3px;vertical-align:bottom;background-color:#f4cccc;text-align:center;&quot;&gt;16&lt;/td&gt;&lt;td style=&quot;border-right:1px solid #000000;border-bottom:1px solid #000000;overflow:hidden;padding:2px 3px 2px 3px;vertical-align:bottom;background-color:#f4cccc;text-align:center;&quot;&gt;16&lt;/td&gt;&lt;td style=&quot;border-right:1px solid #000000;border-bottom:1px solid #000000;overflow:hidden;padding:2px 3px 2px 3px;vertical-align:bottom;background-color:#f4cccc;text-align:center;&quot;&gt;0&lt;/td&gt;&lt;/tr&gt;&lt;tr style=&quot;height:21px;&quot;&gt;&lt;td style=&quot;border-right:1px solid #000000;border-bottom:1px solid #000000;border-left:1px solid #000000;overflow:hidden;padding:2px 3px 2px 3px;vertical-align:bottom;text-align:center;&quot;&gt;10&lt;/td&gt;&lt;td style=&quot;border-right:1px solid #000000;border-bottom:1px solid #000000;overflow:hidden;padding:2px 3px 2px 3px;vertical-align:bottom;text-align:center;&quot;&gt;21&lt;/td&gt;&lt;td style=&quot;border-right:1px solid #000000;border-bottom:1px solid #000000;overflow:hidden;padding:2px 3px 2px 3px;vertical-align:bottom;text-align:center;&quot;&gt;46&lt;/td&gt;&lt;td style=&quot;border-right:1px solid #000000;border-bottom:1px solid #000000;overflow:hidden;padding:2px 3px 2px 3px;vertical-align:bottom;text-align:center;&quot;&gt;25&lt;/td&gt;&lt;/tr&gt;&lt;tr style=&quot;height:21px;&quot;&gt;&lt;td style=&quot;border-right:1px solid #000000;border-bottom:1px solid #000000;border-left:1px solid #000000;overflow:hidden;padding:2px 3px 2px 3px;vertical-align:bottom;background-color:#f4cccc;text-align:center;&quot;&gt;11&lt;/td&gt;&lt;td style=&quot;border-right:1px solid #000000;border-bottom:1px solid #000000;overflow:hidden;padding:2px 3px 2px 3px;vertical-align:bottom;background-color:#f4cccc;text-align:center;&quot;&gt;19&lt;/td&gt;&lt;td style=&quot;border-right:1px solid #000000;border-bottom:1px solid #000000;overflow:hidden;padding:2px 3px 2px 3px;vertical-align:bottom;background-color:#f4cccc;text-align:center;&quot;&gt;19&lt;/td&gt;&lt;td style=&quot;border-right:1px solid #000000;border-bottom:1px solid #000000;overflow:hidden;padding:2px 3px 2px 3px;vertical-align:bottom;background-color:#f4cccc;text-align:center;&quot;&gt;0&lt;/td&gt;&lt;/tr&gt;&lt;tr style=&quot;height:21px;&quot;&gt;&lt;td style=&quot;border-right:1px solid #000000;border-bottom:1px solid #000000;border-left:1px solid #000000;overflow:hidden;padding:2px 3px 2px 3px;vertical-align:bottom;text-align:center;&quot;&gt;12&lt;/td&gt;&lt;td style=&quot;border-right:1px solid #000000;border-bottom:1px solid #000000;overflow:hidden;padding:2px 3px 2px 3px;vertical-align:bottom;text-align:center;&quot;&gt;28&lt;/td&gt;&lt;td style=&quot;border-right:1px solid #000000;border-bottom:1px solid #000000;overflow:hidden;padding:2px 3px 2px 3px;vertical-align:bottom;text-align:center;&quot;&gt;53&lt;/td&gt;&lt;td style=&quot;border-right:1px solid #000000;border-bottom:1px solid #000000;overflow:hidden;padding:2px 3px 2px 3px;vertical-align:bottom;text-align:center;&quot;&gt;25&lt;/td&gt;&lt;/tr&gt;&lt;tr style=&quot;height:21px;&quot;&gt;&lt;td style=&quot;border-right:1px solid #000000;border-bottom:1px solid #000000;border-left:1px solid #000000;overflow:hidden;padding:2px 3px 2px 3px;vertical-align:bottom;text-align:center;&quot;&gt;13&lt;/td&gt;&lt;td style=&quot;border-right:1px solid #000000;border-bottom:1px solid #000000;overflow:hidden;padding:2px 3px 2px 3px;vertical-align:bottom;text-align:center;&quot;&gt;22&lt;/td&gt;&lt;td style=&quot;border-right:1px solid #000000;border-bottom:1px solid #000000;overflow:hidden;padding:2px 3px 2px 3px;vertical-align:bottom;text-align:center;&quot;&gt;56&lt;/td&gt;&lt;td style=&quot;border-right:1px solid #000000;border-bottom:1px solid #000000;overflow:hidden;padding:2px 3px 2px 3px;vertical-align:bottom;text-align:center;&quot;&gt;34&lt;/td&gt;&lt;/tr&gt;&lt;tr style=&quot;height:21px;&quot;&gt;&lt;td style=&quot;border-right:1px solid #000000;border-bottom:1px solid #000000;border-left:1px solid #000000;overflow:hidden;padding:2px 3px 2px 3px;vertical-align:bottom;text-align:center;&quot;&gt;14&lt;/td&gt;&lt;td style=&quot;border-right:1px solid #000000;border-bottom:1px solid #000000;overflow:hidden;padding:2px 3px 2px 3px;vertical-align:bottom;text-align:center;&quot;&gt;28&lt;/td&gt;&lt;td style=&quot;border-right:1px solid #000000;border-bottom:1px solid #000000;overflow:hidden;padding:2px 3px 2px 3px;vertical-align:bottom;text-align:center;&quot;&gt;56&lt;/td&gt;&lt;td style=&quot;border-right:1px solid #000000;border-bottom:1px solid #000000;overflow:hidden;padding:2px 3px 2px 3px;vertical-align:bottom;text-align:center;&quot;&gt;28&lt;/td&gt;&lt;/tr&gt;&lt;tr style=&quot;height:21px;&quot;&gt;&lt;td style=&quot;border-right:1px solid #000000;border-bottom:1px solid #000000;border-left:1px solid #000000;overflow:hidden;padding:2px 3px 2px 3px;vertical-align:bottom;background-color:#f4cccc;text-align:center;&quot;&gt;15&lt;/td&gt;&lt;td style=&quot;border-right:1px solid #000000;border-bottom:1px solid #000000;overflow:hidden;padding:2px 3px 2px 3px;vertical-align:bottom;background-color:#f4cccc;text-align:center;&quot;&gt;29&lt;/td&gt;&lt;td style=&quot;border-right:1px solid #000000;border-bottom:1px solid #000000;overflow:hidden;padding:2px 3px 2px 3px;vertical-align:bottom;background-color:#f4cccc;text-align:center;&quot;&gt;29&lt;/td&gt;&lt;td style=&quot;border-right:1px solid #000000;border-bottom:1px solid #000000;overflow:hidden;padding:2px 3px 2px 3px;vertical-align:bottom;background-color:#f4cccc;text-align:center;&quot;&gt;0&lt;/td&gt;&lt;/tr&gt;&lt;tr style=&quot;height:21px;&quot;&gt;&lt;td style=&quot;border-right:1px solid #000000;border-bottom:1px solid #000000;border-left:1px solid #000000;overflow:hidden;padding:2px 3px 2px 3px;vertical-align:bottom;text-align:center;&quot;&gt;16&lt;/td&gt;&lt;td style=&quot;border-right:1px solid #000000;border-bottom:1px solid #000000;overflow:hidden;padding:2px 3px 2px 3px;vertical-align:bottom;text-align:center;&quot;&gt;22&lt;/td&gt;&lt;td style=&quot;border-right:1px solid #000000;border-bottom:1px solid #000000;overflow:hidden;padding:2px 3px 2px 3px;vertical-align:bottom;text-align:center;&quot;&gt;46&lt;/td&gt;&lt;td style=&quot;border-right:1px solid #000000;border-bottom:1px solid #000000;overflow:hidden;padding:2px 3px 2px 3px;vertical-align:bottom;text-align:center;&quot;&gt;24&lt;/td&gt;&lt;/tr&gt;&lt;tr style=&quot;height:21px;&quot;&gt;&lt;td style=&quot;border-right:1px solid #000000;border-bottom:1px solid #000000;border-left:1px solid #000000;overflow:hidden;padding:2px 3px 2px 3px;vertical-align:bottom;text-align:center;&quot;&gt;17&lt;/td&gt;&lt;td style=&quot;border-right:1px solid #000000;border-bottom:1px solid #000000;overflow:hidden;padding:2px 3px 2px 3px;vertical-align:bottom;text-align:center;&quot;&gt;31&lt;/td&gt;&lt;td style=&quot;border-right:1px solid #000000;border-bottom:1px solid #000000;overflow:hidden;padding:2px 3px 2px 3px;vertical-align:bottom;text-align:center;&quot;&gt;56&lt;/td&gt;&lt;td style=&quot;border-right:1px solid #000000;border-bottom:1px solid #000000;overflow:hidden;padding:2px 3px 2px 3px;vertical-align:bottom;text-align:center;&quot;&gt;25&lt;/td&gt;&lt;/tr&gt;&lt;tr style=&quot;height:21px;&quot;&gt;&lt;td style=&quot;border-right:1px solid #000000;border-bottom:1px solid #000000;border-left:1px solid #000000;overflow:hidden;padding:2px 3px 2px 3px;vertical-align:bottom;background-color:#f4cccc;text-align:center;&quot;&gt;18&lt;/td&gt;&lt;td style=&quot;border-right:1px solid #000000;border-bottom:1px solid #000000;overflow:hidden;padding:2px 3px 2px 3px;vertical-align:bottom;background-color:#f4cccc;text-align:center;&quot;&gt;36&lt;/td&gt;&lt;td style=&quot;border-right:1px solid #000000;border-bottom:1px solid #000000;overflow:hidden;padding:2px 3px 2px 3px;vertical-align:bottom;background-color:#f4cccc;text-align:center;&quot;&gt;36&lt;/td&gt;&lt;td style=&quot;border-right:1px solid #000000;border-bottom:1px solid #000000;overflow:hidden;padding:2px 3px 2px 3px;vertical-align:bottom;background-color:#f4cccc;text-align:center;&quot;&gt;0&lt;/td&gt;&lt;/tr&gt;&lt;tr style=&quot;height:21px;&quot;&gt;&lt;td style=&quot;border-right:1px solid #000000;border-bottom:1px solid #000000;border-left:1px solid #000000;overflow:hidden;padding:2px 3px 2px 3px;vertical-align:bottom;text-align:center;&quot;&gt;19&lt;/td&gt;&lt;td style=&quot;border-right:1px solid #000000;border-bottom:1px solid #000000;overflow:hidden;padding:2px 3px 2px 3px;vertical-align:bottom;text-align:center;&quot;&gt;32&lt;/td&gt;&lt;td style=&quot;border-right:1px solid #000000;border-bottom:1px solid #000000;overflow:hidden;padding:2px 3px 2px 3px;vertical-align:bottom;text-align:center;&quot;&gt;56&lt;/td&gt;&lt;td style=&quot;border-right:1px solid #000000;border-bottom:1px solid #000000;overflow:hidden;padding:2px 3px 2px 3px;vertical-align:bottom;text-align:center;&quot;&gt;24&lt;/td&gt;&lt;/tr&gt;&lt;tr style=&quot;height:21px;&quot;&gt;&lt;td style=&quot;border-right:1px solid #000000;border-bottom:1px solid #000000;border-left:1px solid #000000;overflow:hidden;padding:2px 3px 2px 3px;vertical-align:bottom;text-align:center;&quot;&gt;20&lt;/td&gt;&lt;td style=&quot;border-right:1px solid #000000;border-bottom:1px solid #000000;overflow:hidden;padding:2px 3px 2px 3px;vertical-align:bottom;text-align:center;&quot;&gt;32&lt;/td&gt;&lt;td style=&quot;border-right:1px solid #000000;border-bottom:1px solid #000000;overflow:hidden;padding:2px 3px 2px 3px;vertical-align:bottom;text-align:center;&quot;&gt;56&lt;/td&gt;&lt;td style=&quot;border-right:1px solid #000000;border-bottom:1px solid #000000;overflow:hidden;padding:2px 3px 2px 3px;vertical-align:bottom;text-align:center;&quot;&gt;24&lt;/td&gt;&lt;/tr&gt;&lt;tr style=&quot;height:21px;&quot;&gt;&lt;td style=&quot;border-right:1px solid #000000;border-bottom:1px solid #000000;border-left:1px solid #000000;overflow:hidden;padding:2px 3px 2px 3px;vertical-align:bottom;text-align:center;&quot;&gt;21&lt;/td&gt;&lt;td style=&quot;border-right:1px solid #000000;border-bottom:1px solid #000000;overflow:hidden;padding:2px 3px 2px 3px;vertical-align:bottom;text-align:center;&quot;&gt;32&lt;/td&gt;&lt;td style=&quot;border-right:1px solid #000000;border-bottom:1px solid #000000;overflow:hidden;padding:2px 3px 2px 3px;vertical-align:bottom;text-align:center;&quot;&gt;56&lt;/td&gt;&lt;td style=&quot;border-right:1px solid #000000;border-bottom:1px solid #000000;overflow:hidden;padding:2px 3px 2px 3px;vertical-align:bottom;text-align:center;&quot;&gt;24&lt;/td&gt;&lt;/tr&gt;&lt;tr style=&quot;height:21px;&quot;&gt;&lt;td style=&quot;border-right:1px solid #000000;border-bottom:1px solid #000000;border-left:1px solid #000000;overflow:hidden;padding:2px 3px 2px 3px;vertical-align:bottom;text-align:center;&quot;&gt;22&lt;/td&gt;&lt;td style=&quot;border-right:1px solid #000000;border-bottom:1px solid #000000;overflow:hidden;padding:2px 3px 2px 3px;vertical-align:bottom;text-align:center;&quot;&gt;29&lt;/td&gt;&lt;td style=&quot;border-right:1px solid #000000;border-bottom:1px solid #000000;overflow:hidden;padding:2px 3px 2px 3px;vertical-align:bottom;text-align:center;&quot;&gt;56&lt;/td&gt;&lt;td style=&quot;border-right:1px solid #000000;border-bottom:1px solid #000000;overflow:hidden;padding:2px 3px 2px 3px;vertical-align:bottom;text-align:center;&quot;&gt;27&lt;/td&gt;&lt;/tr&gt;&lt;tr style=&quot;height:21px;&quot;&gt;&lt;td style=&quot;border-right:1px solid #000000;border-bottom:1px solid #000000;border-left:1px solid #000000;overflow:hidden;padding:2px 3px 2px 3px;vertical-align:bottom;text-align:center;&quot;&gt;23&lt;/td&gt;&lt;td style=&quot;border-right:1px solid #000000;border-bottom:1px solid #000000;overflow:hidden;padding:2px 3px 2px 3px;vertical-align:bottom;text-align:center;&quot;&gt;25&lt;/td&gt;&lt;td style=&quot;border-right:1px solid #000000;border-bottom:1px solid #000000;overflow:hidden;padding:2px 3px 2px 3px;vertical-align:bottom;text-align:center;&quot;&gt;49&lt;/td&gt;&lt;td style=&quot;border-right:1px solid #000000;border-bottom:1px solid #000000;overflow:hidden;padding:2px 3px 2px 3px;vertical-align:bottom;text-align:center;&quot;&gt;24&lt;/td&gt;&lt;/tr&gt;&lt;tr style=&quot;height:21px;&quot;&gt;&lt;td style=&quot;border-right:1px solid #000000;border-bottom:1px solid #000000;border-left:1px solid #000000;overflow:hidden;padding:2px 3px 2px 3px;vertical-align:bottom;text-align:center;&quot;&gt;24&lt;/td&gt;&lt;td style=&quot;border-right:1px solid #000000;border-bottom:1px solid #000000;overflow:hidden;padding:2px 3px 2px 3px;vertical-align:bottom;text-align:center;&quot;&gt;43&lt;/td&gt;&lt;td style=&quot;border-right:1px solid #000000;border-bottom:1px solid #000000;overflow:hidden;padding:2px 3px 2px 3px;vertical-align:bottom;text-align:center;&quot;&gt;53&lt;/td&gt;&lt;td style=&quot;border-right:1px solid #000000;border-bottom:1px solid #000000;overflow:hidden;padding:2px 3px 2px 3px;vertical-align:bottom;text-align:center;&quot;&gt;10&lt;/td&gt;&lt;/tr&gt;&lt;tr style=&quot;height:21px;&quot;&gt;&lt;td style=&quot;border-right:1px solid #000000;border-bottom:1px solid #000000;border-left:1px solid #000000;overflow:hidden;padding:2px 3px 2px 3px;vertical-align:bottom;background-color:#f4cccc;text-align:center;&quot;&gt;25&lt;/td&gt;&lt;td style=&quot;border-right:1px solid #000000;border-bottom:1px solid #000000;overflow:hidden;padding:2px 3px 2px 3px;vertical-align:bottom;background-color:#f4cccc;text-align:center;&quot;&gt;46&lt;/td&gt;&lt;td style=&quot;border-right:1px solid #000000;border-bottom:1px solid #000000;overflow:hidden;padding:2px 3px 2px 3px;vertical-align:bottom;background-color:#f4cccc;text-align:center;&quot;&gt;46&lt;/td&gt;&lt;td style=&quot;border-right:1px solid #000000;border-bottom:1px solid #000000;overflow:hidden;padding:2px 3px 2px 3px;vertical-align:bottom;background-color:#f4cccc;text-align:center;&quot;&gt;0&lt;/td&gt;&lt;/tr&gt;&lt;tr style=&quot;height:21px;&quot;&gt;&lt;td style=&quot;border-right:1px solid #000000;border-bottom:1px solid #000000;border-left:1px solid #000000;overflow:hidden;padding:2px 3px 2px 3px;vertical-align:bottom;text-align:center;&quot;&gt;26&lt;/td&gt;&lt;td style=&quot;border-right:1px solid #000000;border-bottom:1px solid #000000;overflow:hidden;padding:2px 3px 2px 3px;vertical-align:bottom;text-align:center;&quot;&gt;32&lt;/td&gt;&lt;td style=&quot;border-right:1px solid #000000;border-bottom:1px solid #000000;overflow:hidden;padding:2px 3px 2px 3px;vertical-align:bottom;text-align:center;&quot;&gt;56&lt;/td&gt;&lt;td style=&quot;border-right:1px solid #000000;border-bottom:1px solid #000000;overflow:hidden;padding:2px 3px 2px 3px;vertical-align:bottom;text-align:center;&quot;&gt;24&lt;/td&gt;&lt;/tr&gt;&lt;tr style=&quot;height:21px;&quot;&gt;&lt;td style=&quot;border-right:1px solid #000000;border-bottom:1px solid #000000;border-left:1px solid #000000;overflow:hidden;padding:2px 3px 2px 3px;vertical-align:bottom;text-align:center;&quot;&gt;27&lt;/td&gt;&lt;td style=&quot;border-right:1px solid #000000;border-bottom:1px solid #000000;overflow:hidden;padding:2px 3px 2px 3px;vertical-align:bottom;text-align:center;&quot;&gt;53&lt;/td&gt;&lt;td style=&quot;border-right:1px solid #000000;border-bottom:1px solid #000000;overflow:hidden;padding:2px 3px 2px 3px;vertical-align:bottom;text-align:center;&quot;&gt;56&lt;/td&gt;&lt;td style=&quot;border-right:1px solid #000000;border-bottom:1px solid #000000;overflow:hidden;padding:2px 3px 2px 3px;vertical-align:bottom;text-align:center;&quot;&gt;3&lt;/td&gt;&lt;/tr&gt;&lt;tr style=&quot;height:21px;&quot;&gt;&lt;td style=&quot;border-right:1px solid #000000;border-bottom:1px solid #000000;border-left:1px solid #000000;overflow:hidden;padding:2px 3px 2px 3px;vertical-align:bottom;background-color:#f4cccc;text-align:center;&quot;&gt;28&lt;/td&gt;&lt;td style=&quot;border-right:1px solid #000000;border-bottom:1px solid #000000;overflow:hidden;padding:2px 3px 2px 3px;vertical-align:bottom;background-color:#f4cccc;text-align:center;&quot;&gt;53&lt;/td&gt;&lt;td style=&quot;border-right:1px solid #000000;border-bottom:1px solid #000000;overflow:hidden;padding:2px 3px 2px 3px;vertical-align:bottom;background-color:#f4cccc;text-align:center;&quot;&gt;53&lt;/td&gt;&lt;td style=&quot;border-right:1px solid #000000;border-bottom:1px solid #000000;overflow:hidden;padding:2px 3px 2px 3px;vertical-align:bottom;background-color:#f4cccc;text-align:center;&quot;&gt;0&lt;/td&gt;&lt;/tr&gt;&lt;tr style=&quot;height:21px;&quot;&gt;&lt;td style=&quot;border-right:1px solid #000000;border-bottom:1px solid #000000;border-left:1px solid #000000;overflow:hidden;padding:2px 3px 2px 3px;vertical-align:bottom;background-color:#f4cccc;text-align:center;&quot;&gt;29&lt;/td&gt;&lt;td style=&quot;border-right:1px solid #000000;border-bottom:1px solid #000000;overflow:hidden;padding:2px 3px 2px 3px;vertical-align:bottom;background-color:#f4cccc;text-align:center;&quot;&gt;56&lt;/td&gt;&lt;td style=&quot;border-right:1px solid #000000;border-bottom:1px solid #000000;overflow:hidden;padding:2px 3px 2px 3px;vertical-align:bottom;background-color:#f4cccc;text-align:center;&quot;&gt;56&lt;/td&gt;&lt;td style=&quot;border-right:1px solid #000000;border-bottom:1px solid #000000;overflow:hidden;padding:2px 3px 2px 3px;vertical-align:bottom;background-color:#f4cccc;text-align:center;&quot;&gt;0&lt;/td&gt;&lt;/tr&gt;&lt;/tbody&gt;&lt;/table&gt;" link="&lt;table xmlns=&quot;http://www.w3.org/1999/xhtml&quot; cellspacing=&quot;0&quot; cellpadding=&quot;0&quot; dir=&quot;ltr&quot; border=&quot;1&quot; style=&quot;table-layout:fixed;font-size:10pt;font-family:Arial;width:0px;border-collapse:collapse;border:none&quot; data-sheets-root=&quot;1&quot; data-sheets-baot=&quot;1&quot;&gt;&lt;colgroup&gt;&lt;col width=&quot;39&quot;&gt;&lt;col width=&quot;23&quot;&gt;&lt;col width=&quot;23&quot;&gt;&lt;col width=&quot;54&quot;&gt;&lt;/colgroup&gt;&lt;tbody&gt;&lt;tr style=&quot;height:21px;&quot;&gt;&lt;td style=&quot;border-top:1px solid #000000;border-right:1px solid #000000;border-bottom:1px solid #000000;border-left:1px solid #000000;overflow:hidden;padding:2px 3px 2px 3px;vertical-align:bottom;text-align:center;&quot;&gt;Nodo&lt;/td&gt;&lt;td style=&quot;border-top:1px solid #000000;border-right:1px solid #000000;border-bottom:1px solid #000000;overflow:hidden;padding:2px 3px 2px 3px;vertical-align:bottom;text-align:center;&quot;&gt;T1&lt;/td&gt;&lt;td style=&quot;border-top:1px solid #000000;border-right:1px solid #000000;border-bottom:1px solid #000000;overflow:hidden;padding:2px 3px 2px 3px;vertical-align:bottom;text-align:center;&quot;&gt;T2&lt;/td&gt;&lt;td style=&quot;border-top:1px solid #000000;border-right:1px solid #000000;border-bottom:1px solid #000000;overflow:hidden;padding:2px 3px 2px 3px;vertical-align:bottom;text-align:center;&quot;&gt;Holgura&lt;/td&gt;&lt;/tr&gt;&lt;tr style=&quot;height:21px;&quot;&gt;&lt;td style=&quot;border-right:1px solid #000000;border-bottom:1px solid #000000;border-left:1px solid #000000;overflow:hidden;padding:2px 3px 2px 3px;vertical-align:bottom;background-color:#f4cccc;text-align:center;&quot;&gt;1&lt;/td&gt;&lt;td style=&quot;border-right:1px solid #000000;border-bottom:1px solid #000000;overflow:hidden;padding:2px 3px 2px 3px;vertical-align:bottom;background-color:#f4cccc;text-align:center;&quot;&gt;0&lt;/td&gt;&lt;td style=&quot;border-right:1px solid #000000;border-bottom:1px solid #000000;overflow:hidden;padding:2px 3px 2px 3px;vertical-align:bottom;background-color:#f4cccc;text-align:center;&quot;&gt;0&lt;/td&gt;&lt;td style=&quot;border-right:1px solid #000000;border-bottom:1px solid #000000;overflow:hidden;padding:2px 3px 2px 3px;vertical-align:bottom;background-color:#f4cccc;text-align:center;&quot;&gt;0&lt;/td&gt;&lt;/tr&gt;&lt;tr style=&quot;height:21px;&quot;&gt;&lt;td style=&quot;border-right:1px solid #000000;border-bottom:1px solid #000000;border-left:1px solid #000000;overflow:hidden;padding:2px 3px 2px 3px;vertical-align:bottom;background-color:#f4cccc;text-align:center;&quot;&gt;2&lt;/td&gt;&lt;td style=&quot;border-right:1px solid #000000;border-bottom:1px solid #000000;overflow:hidden;padding:2px 3px 2px 3px;vertical-align:bottom;background-color:#f4cccc;text-align:center;&quot;&gt;7&lt;/td&gt;&lt;td style=&quot;border-right:1px solid #000000;border-bottom:1px solid #000000;overflow:hidden;padding:2px 3px 2px 3px;vertical-align:bottom;background-color:#f4cccc;text-align:center;&quot;&gt;7&lt;/td&gt;&lt;td style=&quot;border-right:1px solid #000000;border-bottom:1px solid #000000;overflow:hidden;padding:2px 3px 2px 3px;vertical-align:bottom;background-color:#f4cccc;text-align:center;&quot;&gt;0&lt;/td&gt;&lt;/tr&gt;&lt;tr style=&quot;height:21px;&quot;&gt;&lt;td style=&quot;border-right:1px solid #000000;border-bottom:1px solid #000000;border-left:1px solid #000000;overflow:hidden;padding:2px 3px 2px 3px;vertical-align:bottom;text-align:center;&quot;&gt;3&lt;/td&gt;&lt;td style=&quot;border-right:1px solid #000000;border-bottom:1px solid #000000;overflow:hidden;padding:2px 3px 2px 3px;vertical-align:bottom;text-align:center;&quot;&gt;10&lt;/td&gt;&lt;td style=&quot;border-right:1px solid #000000;border-bottom:1px solid #000000;overflow:hidden;padding:2px 3px 2px 3px;vertical-align:bottom;text-align:center;&quot;&gt;49&lt;/td&gt;&lt;td style=&quot;border-right:1px solid #000000;border-bottom:1px solid #000000;overflow:hidden;padding:2px 3px 2px 3px;vertical-align:bottom;text-align:center;&quot;&gt;39&lt;/td&gt;&lt;/tr&gt;&lt;tr style=&quot;height:21px;&quot;&gt;&lt;td style=&quot;border-right:1px solid #000000;border-bottom:1px solid #000000;border-left:1px solid #000000;overflow:hidden;padding:2px 3px 2px 3px;vertical-align:bottom;background-color:#f4cccc;text-align:center;&quot;&gt;4&lt;/td&gt;&lt;td style=&quot;border-right:1px solid #000000;border-bottom:1px solid #000000;overflow:hidden;padding:2px 3px 2px 3px;vertical-align:bottom;background-color:#f4cccc;text-align:center;&quot;&gt;9&lt;/td&gt;&lt;td style=&quot;border-right:1px solid #000000;border-bottom:1px solid #000000;overflow:hidden;padding:2px 3px 2px 3px;vertical-align:bottom;background-color:#f4cccc;text-align:center;&quot;&gt;9&lt;/td&gt;&lt;td style=&quot;border-right:1px solid #000000;border-bottom:1px solid #000000;overflow:hidden;padding:2px 3px 2px 3px;vertical-align:bottom;background-color:#f4cccc;text-align:center;&quot;&gt;0&lt;/td&gt;&lt;/tr&gt;&lt;tr style=&quot;height:21px;&quot;&gt;&lt;td style=&quot;border-right:1px solid #000000;border-bottom:1px solid #000000;border-left:1px solid #000000;overflow:hidden;padding:2px 3px 2px 3px;vertical-align:bottom;text-align:center;&quot;&gt;5&lt;/td&gt;&lt;td style=&quot;border-right:1px solid #000000;border-bottom:1px solid #000000;overflow:hidden;padding:2px 3px 2px 3px;vertical-align:bottom;text-align:center;&quot;&gt;14&lt;/td&gt;&lt;td style=&quot;border-right:1px solid #000000;border-bottom:1px solid #000000;overflow:hidden;padding:2px 3px 2px 3px;vertical-align:bottom;text-align:center;&quot;&gt;39&lt;/td&gt;&lt;td style=&quot;border-right:1px solid #000000;border-bottom:1px solid #000000;overflow:hidden;padding:2px 3px 2px 3px;vertical-align:bottom;text-align:center;&quot;&gt;25&lt;/td&gt;&lt;/tr&gt;&lt;tr style=&quot;height:21px;&quot;&gt;&lt;td style=&quot;border-right:1px solid #000000;border-bottom:1px solid #000000;border-left:1px solid #000000;overflow:hidden;padding:2px 3px 2px 3px;vertical-align:bottom;text-align:center;&quot;&gt;6&lt;/td&gt;&lt;td style=&quot;border-right:1px solid #000000;border-bottom:1px solid #000000;overflow:hidden;padding:2px 3px 2px 3px;vertical-align:bottom;text-align:center;&quot;&gt;14&lt;/td&gt;&lt;td style=&quot;border-right:1px solid #000000;border-bottom:1px solid #000000;overflow:hidden;padding:2px 3px 2px 3px;vertical-align:bottom;text-align:center;&quot;&gt;56&lt;/td&gt;&lt;td style=&quot;border-right:1px solid #000000;border-bottom:1px solid #000000;overflow:hidden;padding:2px 3px 2px 3px;vertical-align:bottom;text-align:center;&quot;&gt;42&lt;/td&gt;&lt;/tr&gt;&lt;tr style=&quot;height:21px;&quot;&gt;&lt;td style=&quot;border-right:1px solid #000000;border-bottom:1px solid #000000;border-left:1px solid #000000;overflow:hidden;padding:2px 3px 2px 3px;vertical-align:bottom;text-align:center;&quot;&gt;7&lt;/td&gt;&lt;td style=&quot;border-right:1px solid #000000;border-bottom:1px solid #000000;overflow:hidden;padding:2px 3px 2px 3px;vertical-align:bottom;text-align:center;&quot;&gt;13&lt;/td&gt;&lt;td style=&quot;border-right:1px solid #000000;border-bottom:1px solid #000000;overflow:hidden;padding:2px 3px 2px 3px;vertical-align:bottom;text-align:center;&quot;&gt;56&lt;/td&gt;&lt;td style=&quot;border-right:1px solid #000000;border-bottom:1px solid #000000;overflow:hidden;padding:2px 3px 2px 3px;vertical-align:bottom;text-align:center;&quot;&gt;43&lt;/td&gt;&lt;/tr&gt;&lt;tr style=&quot;height:21px;&quot;&gt;&lt;td style=&quot;border-right:1px solid #000000;border-bottom:1px solid #000000;border-left:1px solid #000000;overflow:hidden;padding:2px 3px 2px 3px;vertical-align:bottom;text-align:center;&quot;&gt;8&lt;/td&gt;&lt;td style=&quot;border-right:1px solid #000000;border-bottom:1px solid #000000;overflow:hidden;padding:2px 3px 2px 3px;vertical-align:bottom;text-align:center;&quot;&gt;17&lt;/td&gt;&lt;td style=&quot;border-right:1px solid #000000;border-bottom:1px solid #000000;overflow:hidden;padding:2px 3px 2px 3px;vertical-align:bottom;text-align:center;&quot;&gt;56&lt;/td&gt;&lt;td style=&quot;border-right:1px solid #000000;border-bottom:1px solid #000000;overflow:hidden;padding:2px 3px 2px 3px;vertical-align:bottom;text-align:center;&quot;&gt;39&lt;/td&gt;&lt;/tr&gt;&lt;tr style=&quot;height:21px;&quot;&gt;&lt;td style=&quot;border-right:1px solid #000000;border-bottom:1px solid #000000;border-left:1px solid #000000;overflow:hidden;padding:2px 3px 2px 3px;vertical-align:bottom;background-color:#f4cccc;text-align:center;&quot;&gt;9&lt;/td&gt;&lt;td style=&quot;border-right:1px solid #000000;border-bottom:1px solid #000000;overflow:hidden;padding:2px 3px 2px 3px;vertical-align:bottom;background-color:#f4cccc;text-align:center;&quot;&gt;16&lt;/td&gt;&lt;td style=&quot;border-right:1px solid #000000;border-bottom:1px solid #000000;overflow:hidden;padding:2px 3px 2px 3px;vertical-align:bottom;background-color:#f4cccc;text-align:center;&quot;&gt;16&lt;/td&gt;&lt;td style=&quot;border-right:1px solid #000000;border-bottom:1px solid #000000;overflow:hidden;padding:2px 3px 2px 3px;vertical-align:bottom;background-color:#f4cccc;text-align:center;&quot;&gt;0&lt;/td&gt;&lt;/tr&gt;&lt;tr style=&quot;height:21px;&quot;&gt;&lt;td style=&quot;border-right:1px solid #000000;border-bottom:1px solid #000000;border-left:1px solid #000000;overflow:hidden;padding:2px 3px 2px 3px;vertical-align:bottom;text-align:center;&quot;&gt;10&lt;/td&gt;&lt;td style=&quot;border-right:1px solid #000000;border-bottom:1px solid #000000;overflow:hidden;padding:2px 3px 2px 3px;vertical-align:bottom;text-align:center;&quot;&gt;21&lt;/td&gt;&lt;td style=&quot;border-right:1px solid #000000;border-bottom:1px solid #000000;overflow:hidden;padding:2px 3px 2px 3px;vertical-align:bottom;text-align:center;&quot;&gt;46&lt;/td&gt;&lt;td style=&quot;border-right:1px solid #000000;border-bottom:1px solid #000000;overflow:hidden;padding:2px 3px 2px 3px;vertical-align:bottom;text-align:center;&quot;&gt;25&lt;/td&gt;&lt;/tr&gt;&lt;tr style=&quot;height:21px;&quot;&gt;&lt;td style=&quot;border-right:1px solid #000000;border-bottom:1px solid #000000;border-left:1px solid #000000;overflow:hidden;padding:2px 3px 2px 3px;vertical-align:bottom;background-color:#f4cccc;text-align:center;&quot;&gt;11&lt;/td&gt;&lt;td style=&quot;border-right:1px solid #000000;border-bottom:1px solid #000000;overflow:hidden;padding:2px 3px 2px 3px;vertical-align:bottom;background-color:#f4cccc;text-align:center;&quot;&gt;19&lt;/td&gt;&lt;td style=&quot;border-right:1px solid #000000;border-bottom:1px solid #000000;overflow:hidden;padding:2px 3px 2px 3px;vertical-align:bottom;background-color:#f4cccc;text-align:center;&quot;&gt;19&lt;/td&gt;&lt;td style=&quot;border-right:1px solid #000000;border-bottom:1px solid #000000;overflow:hidden;padding:2px 3px 2px 3px;vertical-align:bottom;background-color:#f4cccc;text-align:center;&quot;&gt;0&lt;/td&gt;&lt;/tr&gt;&lt;tr style=&quot;height:21px;&quot;&gt;&lt;td style=&quot;border-right:1px solid #000000;border-bottom:1px solid #000000;border-left:1px solid #000000;overflow:hidden;padding:2px 3px 2px 3px;vertical-align:bottom;text-align:center;&quot;&gt;12&lt;/td&gt;&lt;td style=&quot;border-right:1px solid #000000;border-bottom:1px solid #000000;overflow:hidden;padding:2px 3px 2px 3px;vertical-align:bottom;text-align:center;&quot;&gt;28&lt;/td&gt;&lt;td style=&quot;border-right:1px solid #000000;border-bottom:1px solid #000000;overflow:hidden;padding:2px 3px 2px 3px;vertical-align:bottom;text-align:center;&quot;&gt;53&lt;/td&gt;&lt;td style=&quot;border-right:1px solid #000000;border-bottom:1px solid #000000;overflow:hidden;padding:2px 3px 2px 3px;vertical-align:bottom;text-align:center;&quot;&gt;25&lt;/td&gt;&lt;/tr&gt;&lt;tr style=&quot;height:21px;&quot;&gt;&lt;td style=&quot;border-right:1px solid #000000;border-bottom:1px solid #000000;border-left:1px solid #000000;overflow:hidden;padding:2px 3px 2px 3px;vertical-align:bottom;text-align:center;&quot;&gt;13&lt;/td&gt;&lt;td style=&quot;border-right:1px solid #000000;border-bottom:1px solid #000000;overflow:hidden;padding:2px 3px 2px 3px;vertical-align:bottom;text-align:center;&quot;&gt;22&lt;/td&gt;&lt;td style=&quot;border-right:1px solid #000000;border-bottom:1px solid #000000;overflow:hidden;padding:2px 3px 2px 3px;vertical-align:bottom;text-align:center;&quot;&gt;56&lt;/td&gt;&lt;td style=&quot;border-right:1px solid #000000;border-bottom:1px solid #000000;overflow:hidden;padding:2px 3px 2px 3px;vertical-align:bottom;text-align:center;&quot;&gt;34&lt;/td&gt;&lt;/tr&gt;&lt;tr style=&quot;height:21px;&quot;&gt;&lt;td style=&quot;border-right:1px solid #000000;border-bottom:1px solid #000000;border-left:1px solid #000000;overflow:hidden;padding:2px 3px 2px 3px;vertical-align:bottom;text-align:center;&quot;&gt;14&lt;/td&gt;&lt;td style=&quot;border-right:1px solid #000000;border-bottom:1px solid #000000;overflow:hidden;padding:2px 3px 2px 3px;vertical-align:bottom;text-align:center;&quot;&gt;28&lt;/td&gt;&lt;td style=&quot;border-right:1px solid #000000;border-bottom:1px solid #000000;overflow:hidden;padding:2px 3px 2px 3px;vertical-align:bottom;text-align:center;&quot;&gt;56&lt;/td&gt;&lt;td style=&quot;border-right:1px solid #000000;border-bottom:1px solid #000000;overflow:hidden;padding:2px 3px 2px 3px;vertical-align:bottom;text-align:center;&quot;&gt;28&lt;/td&gt;&lt;/tr&gt;&lt;tr style=&quot;height:21px;&quot;&gt;&lt;td style=&quot;border-right:1px solid #000000;border-bottom:1px solid #000000;border-left:1px solid #000000;overflow:hidden;padding:2px 3px 2px 3px;vertical-align:bottom;background-color:#f4cccc;text-align:center;&quot;&gt;15&lt;/td&gt;&lt;td style=&quot;border-right:1px solid #000000;border-bottom:1px solid #000000;overflow:hidden;padding:2px 3px 2px 3px;vertical-align:bottom;background-color:#f4cccc;text-align:center;&quot;&gt;29&lt;/td&gt;&lt;td style=&quot;border-right:1px solid #000000;border-bottom:1px solid #000000;overflow:hidden;padding:2px 3px 2px 3px;vertical-align:bottom;background-color:#f4cccc;text-align:center;&quot;&gt;29&lt;/td&gt;&lt;td style=&quot;border-right:1px solid #000000;border-bottom:1px solid #000000;overflow:hidden;padding:2px 3px 2px 3px;vertical-align:bottom;background-color:#f4cccc;text-align:center;&quot;&gt;0&lt;/td&gt;&lt;/tr&gt;&lt;tr style=&quot;height:21px;&quot;&gt;&lt;td style=&quot;border-right:1px solid #000000;border-bottom:1px solid #000000;border-left:1px solid #000000;overflow:hidden;padding:2px 3px 2px 3px;vertical-align:bottom;text-align:center;&quot;&gt;16&lt;/td&gt;&lt;td style=&quot;border-right:1px solid #000000;border-bottom:1px solid #000000;overflow:hidden;padding:2px 3px 2px 3px;vertical-align:bottom;text-align:center;&quot;&gt;22&lt;/td&gt;&lt;td style=&quot;border-right:1px solid #000000;border-bottom:1px solid #000000;overflow:hidden;padding:2px 3px 2px 3px;vertical-align:bottom;text-align:center;&quot;&gt;46&lt;/td&gt;&lt;td style=&quot;border-right:1px solid #000000;border-bottom:1px solid #000000;overflow:hidden;padding:2px 3px 2px 3px;vertical-align:bottom;text-align:center;&quot;&gt;24&lt;/td&gt;&lt;/tr&gt;&lt;tr style=&quot;height:21px;&quot;&gt;&lt;td style=&quot;border-right:1px solid #000000;border-bottom:1px solid #000000;border-left:1px solid #000000;overflow:hidden;padding:2px 3px 2px 3px;vertical-align:bottom;text-align:center;&quot;&gt;17&lt;/td&gt;&lt;td style=&quot;border-right:1px solid #000000;border-bottom:1px solid #000000;overflow:hidden;padding:2px 3px 2px 3px;vertical-align:bottom;text-align:center;&quot;&gt;31&lt;/td&gt;&lt;td style=&quot;border-right:1px solid #000000;border-bottom:1px solid #000000;overflow:hidden;padding:2px 3px 2px 3px;vertical-align:bottom;text-align:center;&quot;&gt;56&lt;/td&gt;&lt;td style=&quot;border-right:1px solid #000000;border-bottom:1px solid #000000;overflow:hidden;padding:2px 3px 2px 3px;vertical-align:bottom;text-align:center;&quot;&gt;25&lt;/td&gt;&lt;/tr&gt;&lt;tr style=&quot;height:21px;&quot;&gt;&lt;td style=&quot;border-right:1px solid #000000;border-bottom:1px solid #000000;border-left:1px solid #000000;overflow:hidden;padding:2px 3px 2px 3px;vertical-align:bottom;background-color:#f4cccc;text-align:center;&quot;&gt;18&lt;/td&gt;&lt;td style=&quot;border-right:1px solid #000000;border-bottom:1px solid #000000;overflow:hidden;padding:2px 3px 2px 3px;vertical-align:bottom;background-color:#f4cccc;text-align:center;&quot;&gt;36&lt;/td&gt;&lt;td style=&quot;border-right:1px solid #000000;border-bottom:1px solid #000000;overflow:hidden;padding:2px 3px 2px 3px;vertical-align:bottom;background-color:#f4cccc;text-align:center;&quot;&gt;36&lt;/td&gt;&lt;td style=&quot;border-right:1px solid #000000;border-bottom:1px solid #000000;overflow:hidden;padding:2px 3px 2px 3px;vertical-align:bottom;background-color:#f4cccc;text-align:center;&quot;&gt;0&lt;/td&gt;&lt;/tr&gt;&lt;tr style=&quot;height:21px;&quot;&gt;&lt;td style=&quot;border-right:1px solid #000000;border-bottom:1px solid #000000;border-left:1px solid #000000;overflow:hidden;padding:2px 3px 2px 3px;vertical-align:bottom;text-align:center;&quot;&gt;19&lt;/td&gt;&lt;td style=&quot;border-right:1px solid #000000;border-bottom:1px solid #000000;overflow:hidden;padding:2px 3px 2px 3px;vertical-align:bottom;text-align:center;&quot;&gt;32&lt;/td&gt;&lt;td style=&quot;border-right:1px solid #000000;border-bottom:1px solid #000000;overflow:hidden;padding:2px 3px 2px 3px;vertical-align:bottom;text-align:center;&quot;&gt;56&lt;/td&gt;&lt;td style=&quot;border-right:1px solid #000000;border-bottom:1px solid #000000;overflow:hidden;padding:2px 3px 2px 3px;vertical-align:bottom;text-align:center;&quot;&gt;24&lt;/td&gt;&lt;/tr&gt;&lt;tr style=&quot;height:21px;&quot;&gt;&lt;td style=&quot;border-right:1px solid #000000;border-bottom:1px solid #000000;border-left:1px solid #000000;overflow:hidden;padding:2px 3px 2px 3px;vertical-align:bottom;text-align:center;&quot;&gt;20&lt;/td&gt;&lt;td style=&quot;border-right:1px solid #000000;border-bottom:1px solid #000000;overflow:hidden;padding:2px 3px 2px 3px;vertical-align:bottom;text-align:center;&quot;&gt;32&lt;/td&gt;&lt;td style=&quot;border-right:1px solid #000000;border-bottom:1px solid #000000;overflow:hidden;padding:2px 3px 2px 3px;vertical-align:bottom;text-align:center;&quot;&gt;56&lt;/td&gt;&lt;td style=&quot;border-right:1px solid #000000;border-bottom:1px solid #000000;overflow:hidden;padding:2px 3px 2px 3px;vertical-align:bottom;text-align:center;&quot;&gt;24&lt;/td&gt;&lt;/tr&gt;&lt;tr style=&quot;height:21px;&quot;&gt;&lt;td style=&quot;border-right:1px solid #000000;border-bottom:1px solid #000000;border-left:1px solid #000000;overflow:hidden;padding:2px 3px 2px 3px;vertical-align:bottom;text-align:center;&quot;&gt;21&lt;/td&gt;&lt;td style=&quot;border-right:1px solid #000000;border-bottom:1px solid #000000;overflow:hidden;padding:2px 3px 2px 3px;vertical-align:bottom;text-align:center;&quot;&gt;32&lt;/td&gt;&lt;td style=&quot;border-right:1px solid #000000;border-bottom:1px solid #000000;overflow:hidden;padding:2px 3px 2px 3px;vertical-align:bottom;text-align:center;&quot;&gt;56&lt;/td&gt;&lt;td style=&quot;border-right:1px solid #000000;border-bottom:1px solid #000000;overflow:hidden;padding:2px 3px 2px 3px;vertical-align:bottom;text-align:center;&quot;&gt;24&lt;/td&gt;&lt;/tr&gt;&lt;tr style=&quot;height:21px;&quot;&gt;&lt;td style=&quot;border-right:1px solid #000000;border-bottom:1px solid #000000;border-left:1px solid #000000;overflow:hidden;padding:2px 3px 2px 3px;vertical-align:bottom;text-align:center;&quot;&gt;22&lt;/td&gt;&lt;td style=&quot;border-right:1px solid #000000;border-bottom:1px solid #000000;overflow:hidden;padding:2px 3px 2px 3px;vertical-align:bottom;text-align:center;&quot;&gt;29&lt;/td&gt;&lt;td style=&quot;border-right:1px solid #000000;border-bottom:1px solid #000000;overflow:hidden;padding:2px 3px 2px 3px;vertical-align:bottom;text-align:center;&quot;&gt;56&lt;/td&gt;&lt;td style=&quot;border-right:1px solid #000000;border-bottom:1px solid #000000;overflow:hidden;padding:2px 3px 2px 3px;vertical-align:bottom;text-align:center;&quot;&gt;27&lt;/td&gt;&lt;/tr&gt;&lt;tr style=&quot;height:21px;&quot;&gt;&lt;td style=&quot;border-right:1px solid #000000;border-bottom:1px solid #000000;border-left:1px solid #000000;overflow:hidden;padding:2px 3px 2px 3px;vertical-align:bottom;text-align:center;&quot;&gt;23&lt;/td&gt;&lt;td style=&quot;border-right:1px solid #000000;border-bottom:1px solid #000000;overflow:hidden;padding:2px 3px 2px 3px;vertical-align:bottom;text-align:center;&quot;&gt;25&lt;/td&gt;&lt;td style=&quot;border-right:1px solid #000000;border-bottom:1px solid #000000;overflow:hidden;padding:2px 3px 2px 3px;vertical-align:bottom;text-align:center;&quot;&gt;49&lt;/td&gt;&lt;td style=&quot;border-right:1px solid #000000;border-bottom:1px solid #000000;overflow:hidden;padding:2px 3px 2px 3px;vertical-align:bottom;text-align:center;&quot;&gt;24&lt;/td&gt;&lt;/tr&gt;&lt;tr style=&quot;height:21px;&quot;&gt;&lt;td style=&quot;border-right:1px solid #000000;border-bottom:1px solid #000000;border-left:1px solid #000000;overflow:hidden;padding:2px 3px 2px 3px;vertical-align:bottom;text-align:center;&quot;&gt;24&lt;/td&gt;&lt;td style=&quot;border-right:1px solid #000000;border-bottom:1px solid #000000;overflow:hidden;padding:2px 3px 2px 3px;vertical-align:bottom;text-align:center;&quot;&gt;43&lt;/td&gt;&lt;td style=&quot;border-right:1px solid #000000;border-bottom:1px solid #000000;overflow:hidden;padding:2px 3px 2px 3px;vertical-align:bottom;text-align:center;&quot;&gt;53&lt;/td&gt;&lt;td style=&quot;border-right:1px solid #000000;border-bottom:1px solid #000000;overflow:hidden;padding:2px 3px 2px 3px;vertical-align:bottom;text-align:center;&quot;&gt;10&lt;/td&gt;&lt;/tr&gt;&lt;tr style=&quot;height:21px;&quot;&gt;&lt;td style=&quot;border-right:1px solid #000000;border-bottom:1px solid #000000;border-left:1px solid #000000;overflow:hidden;padding:2px 3px 2px 3px;vertical-align:bottom;background-color:#f4cccc;text-align:center;&quot;&gt;25&lt;/td&gt;&lt;td style=&quot;border-right:1px solid #000000;border-bottom:1px solid #000000;overflow:hidden;padding:2px 3px 2px 3px;vertical-align:bottom;background-color:#f4cccc;text-align:center;&quot;&gt;46&lt;/td&gt;&lt;td style=&quot;border-right:1px solid #000000;border-bottom:1px solid #000000;overflow:hidden;padding:2px 3px 2px 3px;vertical-align:bottom;background-color:#f4cccc;text-align:center;&quot;&gt;46&lt;/td&gt;&lt;td style=&quot;border-right:1px solid #000000;border-bottom:1px solid #000000;overflow:hidden;padding:2px 3px 2px 3px;vertical-align:bottom;background-color:#f4cccc;text-align:center;&quot;&gt;0&lt;/td&gt;&lt;/tr&gt;&lt;tr style=&quot;height:21px;&quot;&gt;&lt;td style=&quot;border-right:1px solid #000000;border-bottom:1px solid #000000;border-left:1px solid #000000;overflow:hidden;padding:2px 3px 2px 3px;vertical-align:bottom;text-align:center;&quot;&gt;26&lt;/td&gt;&lt;td style=&quot;border-right:1px solid #000000;border-bottom:1px solid #000000;overflow:hidden;padding:2px 3px 2px 3px;vertical-align:bottom;text-align:center;&quot;&gt;32&lt;/td&gt;&lt;td style=&quot;border-right:1px solid #000000;border-bottom:1px solid #000000;overflow:hidden;padding:2px 3px 2px 3px;vertical-align:bottom;text-align:center;&quot;&gt;56&lt;/td&gt;&lt;td style=&quot;border-right:1px solid #000000;border-bottom:1px solid #000000;overflow:hidden;padding:2px 3px 2px 3px;vertical-align:bottom;text-align:center;&quot;&gt;24&lt;/td&gt;&lt;/tr&gt;&lt;tr style=&quot;height:21px;&quot;&gt;&lt;td style=&quot;border-right:1px solid #000000;border-bottom:1px solid #000000;border-left:1px solid #000000;overflow:hidden;padding:2px 3px 2px 3px;vertical-align:bottom;text-align:center;&quot;&gt;27&lt;/td&gt;&lt;td style=&quot;border-right:1px solid #000000;border-bottom:1px solid #000000;overflow:hidden;padding:2px 3px 2px 3px;vertical-align:bottom;text-align:center;&quot;&gt;53&lt;/td&gt;&lt;td style=&quot;border-right:1px solid #000000;border-bottom:1px solid #000000;overflow:hidden;padding:2px 3px 2px 3px;vertical-align:bottom;text-align:center;&quot;&gt;56&lt;/td&gt;&lt;td style=&quot;border-right:1px solid #000000;border-bottom:1px solid #000000;overflow:hidden;padding:2px 3px 2px 3px;vertical-align:bottom;text-align:center;&quot;&gt;3&lt;/td&gt;&lt;/tr&gt;&lt;tr style=&quot;height:21px;&quot;&gt;&lt;td style=&quot;border-right:1px solid #000000;border-bottom:1px solid #000000;border-left:1px solid #000000;overflow:hidden;padding:2px 3px 2px 3px;vertical-align:bottom;background-color:#f4cccc;text-align:center;&quot;&gt;28&lt;/td&gt;&lt;td style=&quot;border-right:1px solid #000000;border-bottom:1px solid #000000;overflow:hidden;padding:2px 3px 2px 3px;vertical-align:bottom;background-color:#f4cccc;text-align:center;&quot;&gt;53&lt;/td&gt;&lt;td style=&quot;border-right:1px solid #000000;border-bottom:1px solid #000000;overflow:hidden;padding:2px 3px 2px 3px;vertical-align:bottom;background-color:#f4cccc;text-align:center;&quot;&gt;53&lt;/td&gt;&lt;td style=&quot;border-right:1px solid #000000;border-bottom:1px solid #000000;overflow:hidden;padding:2px 3px 2px 3px;vertical-align:bottom;background-color:#f4cccc;text-align:center;&quot;&gt;0&lt;/td&gt;&lt;/tr&gt;&lt;tr style=&quot;height:21px;&quot;&gt;&lt;td style=&quot;border-right:1px solid #000000;border-bottom:1px solid #000000;border-left:1px solid #000000;overflow:hidden;padding:2px 3px 2px 3px;vertical-align:bottom;background-color:#f4cccc;text-align:center;&quot;&gt;29&lt;/td&gt;&lt;td style=&quot;border-right:1px solid #000000;border-bottom:1px solid #000000;overflow:hidden;padding:2px 3px 2px 3px;vertical-align:bottom;background-color:#f4cccc;text-align:center;&quot;&gt;56&lt;/td&gt;&lt;td style=&quot;border-right:1px solid #000000;border-bottom:1px solid #000000;overflow:hidden;padding:2px 3px 2px 3px;vertical-align:bottom;background-color:#f4cccc;text-align:center;&quot;&gt;56&lt;/td&gt;&lt;td style=&quot;border-right:1px solid #000000;border-bottom:1px solid #000000;overflow:hidden;padding:2px 3px 2px 3px;vertical-align:bottom;background-color:#f4cccc;text-align:center;&quot;&gt;0&lt;/td&gt;&lt;/tr&gt;&lt;/tbody&gt;&lt;/table&gt;" id="THb6lPUGCNZwUX9jg0fV-4">
          <mxCell style="text;whiteSpace=wrap;html=1;" vertex="1" parent="1">
            <mxGeometry x="890" y="-890" width="170" height="650" as="geometry" />
          </mxCell>
        </UserObject>
      </root>
    </mxGraphModel>
  </diagram>
</mxfile>
